<?xml version="1.0" encoding="UTF-8" standalone="no"?>
<!DOCTYPE svg PUBLIC "-//W3C//DTD SVG 1.1//EN" "http://www.w3.org/Graphics/SVG/1.1/DTD/svg11.dtd">
<svg xmlns="http://www.w3.org/2000/svg" version="1.1" viewBox="0.00 0.00 1024.00 1024.00">
<g stroke-width="2.00" fill="none" stroke-linecap="butt">
<path stroke="#a79388" vector-effect="non-scaling-stroke" d="
  M 591.10 327.07
  Q 588.31 332.25 586.78 334.51
  C 583.09 339.98 578.38 344.26 573.36 348.87
  A 0.72 0.72 0.0 0 0 573.28 349.85
  Q 579.71 357.90 581.01 368.59
  A 0.33 0.33 0.0 0 1 580.48 368.90
  Q 567.91 359.60 552.51 355.11
  A 0.52 0.52 0.0 0 1 552.40 354.16
  Q 588.07 334.07 601.61 295.94
  Q 606.69 281.61 606.87 261.57
  Q 606.90 258.61 606.04 253.68
  Q 604.91 247.16 604.60 245.90
  C 595.83 210.64 564.86 196.10 531.32 193.35
  Q 525.44 192.86 513.66 192.88
  Q 445.18 192.99 383.20 192.84
  A 0.56 0.56 0.0 0 0 382.63 193.35
  L 382.49 194.92
  A 0.92 0.91 -72.7 0 0 382.95 195.81
  C 393.81 201.83 402.30 208.89 405.33 221.17
  C 406.36 225.36 406.09 230.34 406.08 235.75
  Q 406.00 267.56 406.04 447.25
  Q 406.04 455.70 406.43 482.38
  A 4.58 4.55 -39.1 0 1 406.33 483.33
  Q 405.21 488.72 399.29 493.31
  Q 391.81 499.12 382.73 504.01
  A 2.10 2.08 -11.5 0 0 381.64 505.64
  L 381.28 509.57
  A 0.72 0.71 -87.1 0 0 381.99 510.36
  Q 477.09 510.42 519.90 510.42
  Q 529.88 510.42 538.05 509.43
  Q 547.60 508.28 555.92 506.38
  Q 577.54 501.47 594.05 487.64
  Q 613.87 471.03 617.66 445.52
  Q 619.26 434.80 617.29 420.64
  C 616.08 411.95 612.36 403.49 608.11 395.62
  A 0.97 0.95 -50.2 0 1 608.05 394.89
  C 615.56 371.89 612.11 342.62 591.94 326.90
  A 0.56 0.56 0.0 0 0 591.10 327.07"
/>
<path stroke="#888888" vector-effect="non-scaling-stroke" d="
  M 666.66 675.18
  L 698.22 675.18
  A 0.98 0.98 0.0 0 0 698.41 673.24
  Q 695.22 672.62 692.00 670.26
  C 688.48 667.68 688.73 661.85 689.75 657.98
  Q 692.41 647.94 696.36 638.63
  A 1.15 1.14 -78.2 0 1 697.41 637.94
  L 729.97 637.94
  A 1.11 1.11 0.0 0 1 730.99 638.61
  Q 737.23 653.19 739.41 659.12
  C 742.94 668.75 740.92 672.50 730.34 672.84
  A 1.57 1.57 0.0 0 0 728.88 674.00
  L 728.79 674.35
  A 0.65 0.64 -82.2 0 0 729.41 675.17
  L 771.92 675.17
  A 1.16 1.16 0.0 0 0 772.23 672.89
  C 766.03 671.17 760.70 669.36 758.12 662.87
  C 754.66 654.16 750.13 644.64 746.90 636.49
  Q 745.00 631.69 737.54 614.16
  Q 731.81 600.69 722.12 577.91
  C 720.80 574.79 720.53 572.60 716.89 573.67
  A 1.64 1.63 3.1 0 0 715.85 574.60
  C 711.05 585.93 706.90 597.90 702.65 608.73
  Q 693.31 632.51 683.79 657.04
  Q 681.99 661.67 679.00 666.31
  Q 677.06 669.33 671.60 671.95
  C 669.53 672.95 668.01 672.00 666.10 673.69
  A 0.85 0.85 0.0 0 0 666.66 675.18"
/>
<path stroke="#888888" vector-effect="non-scaling-stroke" d="
  M 408.79 672.85
  C 401.12 672.48 395.86 668.61 396.03 660.49
  Q 396.04 660.38 396.09 629.00
  Q 396.09 626.88 397.53 624.54
  Q 402.67 616.15 414.36 596.05
  C 416.16 592.95 417.76 591.06 420.50 587.26
  Q 423.98 582.46 429.44 578.96
  Q 430.40 578.34 436.48 576.94
  A 0.92 0.91 -18.9 0 0 437.11 575.67
  L 437.09 575.64
  A 1.73 1.72 76.5 0 0 435.55 574.69
  L 404.16 574.62
  A 0.77 0.76 -0.0 0 0 403.39 575.38
  L 403.39 575.86
  A 1.33 1.33 0.0 0 0 404.57 577.18
  C 409.25 577.68 414.02 579.08 413.13 585.03
  Q 412.49 589.33 410.34 593.07
  Q 404.35 603.51 392.92 622.44
  A 0.96 0.94 -58.1 0 1 391.59 622.76
  Q 391.22 622.53 391.15 622.36
  Q 390.82 621.64 379.07 600.47
  C 376.42 595.69 373.25 590.90 371.31 586.22
  Q 369.35 581.50 371.78 578.82
  C 373.11 577.37 375.11 577.17 377.58 576.58
  A 0.98 0.98 0.0 0 0 377.35 574.64
  L 339.06 574.65
  A 0.96 0.96 0.0 0 0 338.14 575.33
  L 338.01 575.73
  A 0.87 0.87 0.0 0 0 338.58 576.82
  L 347.90 579.75
  A 1.22 1.15 73.4 0 1 348.38 580.03
  Q 352.43 583.90 353.45 585.56
  Q 359.45 595.22 374.64 623.09
  C 378.55 630.26 380.14 633.42 379.86 639.98
  Q 379.52 647.77 379.74 657.15
  C 379.96 666.19 377.36 673.13 366.96 672.27
  A 2.15 2.15 0.0 0 0 364.73 673.78
  L 364.58 674.26
  A 0.66 0.66 0.0 0 0 365.21 675.12
  L 408.62 675.12
  A 0.63 0.62 -90.0 0 0 409.24 674.49
  L 409.24 673.33
  A 0.48 0.48 0.0 0 0 408.79 672.85"
/>
<path stroke="#888888" vector-effect="non-scaling-stroke" d="
  M 303.89 620.44
  Q 315.27 618.62 321.43 609.49
  C 325.02 604.18 324.87 597.41 323.89 590.89
  A 5.38 5.13 29.0 0 0 323.42 589.39
  Q 319.57 581.52 312.41 578.62
  Q 302.71 574.68 296.68 574.69
  Q 266.86 574.77 248.38 574.65
  A 0.96 0.95 88.1 0 0 247.42 575.68
  L 247.45 576.18
  A 1.06 1.04 -87.9 0 0 248.32 577.13
  C 254.47 578.12 260.10 578.07 261.64 585.63
  C 262.16 588.14 262.32 589.82 262.34 592.32
  Q 262.68 631.07 262.32 659.01
  C 262.25 664.26 260.08 669.64 254.68 671.71
  A 1.91 1.81 28.2 0 1 254.35 671.80
  L 248.84 672.56
  A 1.64 1.63 4.4 0 0 247.48 673.72
  L 247.40 673.99
  A 0.94 0.94 0.0 0 0 248.32 675.15
  Q 281.69 675.00 292.75 675.14
  C 305.92 675.31 319.87 672.45 327.11 660.93
  Q 330.36 655.76 331.15 650.25
  C 332.91 638.00 327.04 627.96 315.11 623.89
  Q 309.58 622.00 303.88 620.94
  A 0.25 0.25 0.0 0 1 303.89 620.44"
/>
<path stroke="#888888" vector-effect="non-scaling-stroke" d="
  M 504.30 579.84
  C 511.43 579.58 518.87 579.53 525.15 581.39
  Q 529.08 582.55 529.79 583.06
  Q 532.62 585.09 534.96 588.30
  C 537.28 591.47 538.02 594.85 539.36 598.41
  A 1.91 1.80 61.1 0 0 542.20 599.32
  Q 543.08 598.64 542.92 597.01
  Q 542.40 591.76 542.38 591.49
  Q 541.94 586.83 542.01 575.51
  A 0.86 0.85 90.0 0 0 541.16 574.65
  L 450.99 574.65
  A 1.09 1.09 0.0 0 0 449.90 575.72
  Q 449.69 587.00 449.24 597.99
  Q 449.19 599.08 450.23 599.37
  A 2.11 2.02 -73.5 0 0 452.72 597.94
  C 453.66 594.89 454.52 591.72 456.20 589.28
  Q 460.45 583.12 467.13 581.14
  C 473.65 579.20 481.47 579.97 487.44 579.93
  A 0.51 0.51 0.0 0 1 487.95 580.44
  Q 487.90 619.61 487.92 657.97
  C 487.92 665.04 484.53 672.19 476.03 672.15
  Q 474.14 672.14 471.55 673.02
  A 1.13 1.12 58.1 0 0 471.12 674.89
  Q 471.13 674.89 471.29 675.10
  A 0.28 0.27 -17.4 0 0 471.51 675.21
  L 519.23 675.20
  A 1.09 1.09 0.0 0 0 519.59 673.09
  Q 517.49 672.34 515.29 672.18
  C 510.02 671.80 505.41 668.71 504.17 663.73
  Q 504.04 663.23 504.03 653.27
  Q 503.95 607.19 503.90 580.26
  A 0.41 0.41 0.0 0 1 504.30 579.84"
/>
<path stroke="#888888" vector-effect="non-scaling-stroke" d="
  M 586.53 629.12
  C 595.54 628.59 598.93 630.17 603.81 637.73
  Q 607.20 642.98 611.49 650.59
  C 613.72 654.56 615.43 657.05 617.82 661.10
  C 621.12 666.68 625.21 670.52 630.12 673.95
  A 4.56 4.47 -17.7 0 0 631.29 674.54
  Q 635.72 676.00 637.28 676.32
  Q 640.76 677.03 645.43 675.64
  A 4.92 3.71 26.4 0 1 646.18 675.50
  L 654.99 674.67
  A 0.78 0.77 85.5 0 0 655.69 673.84
  L 655.66 673.52
  A 1.41 1.40 87.4 0 0 654.24 672.22
  C 646.20 672.35 640.92 667.47 636.44 661.05
  C 631.78 654.35 627.15 645.57 622.32 638.54
  Q 616.99 630.78 614.04 627.45
  A 0.55 0.55 0.0 0 1 614.27 626.57
  C 627.74 621.85 638.94 608.74 634.31 593.90
  Q 630.95 583.16 619.33 578.66
  C 612.04 575.84 605.72 574.51 597.38 574.60
  Q 585.14 574.73 556.95 574.61
  A 1.27 1.27 0.0 0 0 555.67 575.90
  L 555.67 575.96
  A 1.56 1.54 0.8 0 0 557.15 577.47
  Q 564.91 577.81 568.20 582.40
  A 1.36 1.16 22.0 0 1 568.33 582.65
  Q 570.04 587.76 570.09 590.49
  Q 570.45 612.74 570.21 659.03
  C 570.19 661.92 569.56 663.97 568.49 666.78
  Q 566.55 671.88 556.62 672.84
  A 1.05 1.04 -2.7 0 0 555.67 673.88
  L 555.67 674.31
  A 0.81 0.81 0.0 0 0 556.48 675.12
  L 599.49 675.12
  A 1.05 1.05 0.0 0 0 599.73 673.04
  C 595.24 672.00 591.14 671.26 588.44 667.60
  C 586.91 665.53 586.23 660.72 586.26 657.65
  Q 586.41 641.86 586.12 629.57
  A 0.44 0.44 0.0 0 1 586.53 629.12"
/>
<path stroke="#888888" vector-effect="non-scaling-stroke" d="
  M 260.34 727.72
  Q 254.25 727.82 253.26 728.02
  Q 242.28 730.23 237.60 741.39
  C 235.45 746.52 235.70 755.42 237.89 760.53
  Q 243.73 774.21 259.14 773.78
  Q 265.60 773.61 271.61 769.49
  Q 276.80 765.93 279.28 758.87
  Q 283.11 747.97 277.63 738.03
  C 274.87 733.03 272.35 731.30 267.24 728.95
  Q 264.44 727.66 260.34 727.72"
/>
<path stroke="#888888" vector-effect="non-scaling-stroke" d="
  M 368.74 773.10
  A 0.57 0.57 0.0 0 0 368.87 771.98
  Q 363.14 770.57 363.17 764.05
  Q 363.29 738.52 363.05 732.03
  A 0.53 0.52 -0.5 0 1 363.60 731.48
  L 371.79 731.81
  A 2.42 2.17 -29.7 0 1 372.53 731.97
  Q 377.30 733.84 378.26 739.22
  A 0.97 0.96 -3.6 0 0 379.18 740.02
  L 379.21 740.02
  A 0.75 0.75 0.0 0 0 379.94 739.21
  L 379.13 728.54
  A 0.74 0.74 0.0 0 0 378.21 727.87
  C 375.84 728.45 375.02 728.79 372.57 728.82
  Q 359.69 728.99 346.76 728.84
  Q 344.31 728.81 342.38 728.00
  A 1.36 1.36 0.0 0 0 340.51 729.03
  C 340.13 731.36 338.92 737.33 339.85 739.51
  A 0.61 0.60 39.4 0 0 341.00 739.40
  Q 341.60 736.47 344.20 733.44
  A 2.53 2.51 9.4 0 1 345.20 732.73
  Q 349.66 731.03 355.67 731.37
  A 0.71 0.70 -87.9 0 1 356.33 732.09
  Q 356.14 746.91 356.33 763.00
  Q 356.37 766.96 354.93 769.65
  A 3.56 3.55 -78.1 0 1 352.07 771.52
  L 349.80 771.69
  A 0.60 0.60 0.0 0 0 349.25 772.34
  L 349.27 772.66
  A 0.47 0.47 0.0 0 0 349.74 773.10
  L 368.74 773.10"
/>
<path stroke="#888888" vector-effect="non-scaling-stroke" d="
  M 443.30 772.59
  L 451.32 767.96
  A 1.22 1.19 -84.2 0 0 451.62 767.71
  Q 463.31 754.36 456.01 738.73
  Q 451.81 729.71 441.20 727.83
  Q 439.32 727.50 431.88 727.84
  A 2.90 2.78 28.4 0 0 430.65 728.18
  C 428.99 729.09 427.17 728.90 425.34 730.02
  C 414.84 736.47 411.33 751.73 417.18 762.46
  Q 422.87 772.90 435.50 773.22
  A 1.17 1.16 -12.3 0 1 436.51 773.86
  Q 439.10 779.02 443.75 781.96
  Q 446.52 783.72 448.39 783.85
  Q 453.20 784.17 459.33 782.83
  Q 460.83 782.51 464.77 779.76
  A 0.94 0.93 -31.1 0 0 465.07 778.56
  L 465.04 778.51
  A 0.74 0.73 59.5 0 0 463.98 778.23
  C 456.13 783.33 448.46 780.16 443.18 773.20
  A 0.42 0.42 0.0 0 1 443.30 772.59"
/>
<path stroke="#888888" vector-effect="non-scaling-stroke" d="
  M 643.36 749.82
  C 642.76 763.09 650.90 773.42 664.57 774.05
  C 678.25 774.67 687.30 765.12 687.90 751.86
  C 688.51 738.59 680.37 728.26 666.69 727.63
  C 653.02 727.01 643.97 736.56 643.36 749.82"
/>
<path stroke="#888888" vector-effect="non-scaling-stroke" d="
  M 695.82 739.18
  C 696.52 738.18 696.69 735.91 697.55 735.00
  Q 700.07 732.32 701.91 731.86
  Q 703.22 731.53 710.25 731.50
  A 0.66 0.66 0.0 0 1 710.91 732.16
  Q 711.05 759.00 710.76 765.98
  Q 710.57 770.67 705.88 771.39
  A 1.16 1.15 -89.3 0 0 704.93 772.32
  L 704.91 772.38
  A 0.69 0.68 4.9 0 0 705.59 773.18
  L 723.85 773.09
  A 0.35 0.35 0.0 0 0 724.20 772.71
  L 724.18 772.42
  A 0.92 0.91 88.9 0 0 723.32 771.58
  C 718.88 771.35 717.71 766.37 717.74 762.31
  Q 717.90 737.58 717.67 732.02
  A 0.48 0.48 0.0 0 1 718.13 731.52
  C 724.30 731.28 732.01 731.38 732.93 739.17
  A 0.79 0.79 0.0 0 0 733.92 739.84
  L 734.21 739.76
  A 0.81 0.80 -9.9 0 0 734.79 738.94
  L 733.99 728.46
  A 0.69 0.69 0.0 0 0 733.03 727.87
  L 731.16 728.66
  A 3.29 3.13 -55.2 0 1 729.90 728.92
  Q 706.21 728.93 700.51 728.83
  Q 698.97 728.80 697.82 728.08
  A 1.69 1.68 18.7 0 0 695.24 729.35
  L 694.37 738.64
  A 0.80 0.80 0.0 0 0 695.82 739.18"
/>
<path stroke="#888888" vector-effect="non-scaling-stroke" d="
  M 216.77 748.46
  C 222.31 746.01 224.24 742.68 223.43 736.73
  C 223.00 733.60 220.90 731.27 217.81 730.17
  Q 213.36 728.60 212.47 728.61
  Q 200.69 728.75 190.87 728.55
  A 0.56 0.56 0.0 0 0 190.30 729.11
  L 190.30 729.48
  A 0.78 0.78 0.0 0 0 190.94 730.25
  C 194.30 730.88 196.58 731.45 196.59 735.50
  Q 196.71 763.24 196.52 765.67
  Q 196.06 771.63 190.71 771.70
  A 0.76 0.75 3.4 0 0 189.96 772.36
  L 189.95 772.64
  A 0.38 0.38 0.0 0 0 190.33 773.03
  L 215.65 773.03
  A 1.67 1.61 30.5 0 0 216.40 772.85
  Q 217.55 772.28 218.74 771.85
  C 226.38 769.04 228.53 759.97 224.81 753.44
  A 2.71 2.67 -1.3 0 0 223.64 752.34
  L 216.76 748.99
  A 0.29 0.29 0.0 0 1 216.77 748.46"
/>
<path stroke="#888888" vector-effect="non-scaling-stroke" d="
  M 483.63 728.71
  L 468.70 728.71
  A 0.73 0.72 57.8 0 0 468.39 730.09
  L 471.65 731.68
  A 2.84 2.82 13.2 0 1 473.24 734.22
  Q 473.24 747.69 473.60 757.69
  Q 473.97 767.75 482.95 772.19
  Q 488.33 774.85 492.78 773.95
  C 504.33 771.59 507.80 765.59 507.81 754.13
  Q 507.82 739.08 507.83 736.28
  C 507.84 733.27 508.27 731.49 511.03 730.21
  A 0.83 0.83 0.0 0 0 510.68 728.63
  L 500.75 728.63
  A 0.24 0.17 -54.2 0 0 500.63 728.67
  Q 500.08 728.99 500.28 729.73
  A 0.57 0.57 0.0 0 0 500.77 730.15
  Q 505.07 730.55 505.12 735.47
  Q 505.34 754.47 504.73 759.18
  C 503.72 767.09 497.75 772.47 489.71 770.54
  C 482.65 768.84 480.93 762.07 480.98 755.49
  Q 481.09 739.71 480.99 733.52
  A 2.13 2.10 -29.8 0 1 481.31 732.37
  Q 482.16 731.01 483.96 729.99
  A 0.69 0.68 -59.6 0 0 483.63 728.71"
/>
<path stroke="#888888" vector-effect="non-scaling-stroke" d="
  M 622.24 751.58
  Q 622.35 753.25 622.27 760.76
  C 622.23 764.26 622.65 766.77 620.86 770.05
  A 1.88 1.86 4.3 0 1 619.85 770.91
  Q 619.27 771.11 618.09 771.50
  Q 617.41 771.72 617.31 772.42
  A 0.68 0.66 2.9 0 0 618.00 773.17
  Q 627.29 772.95 634.43 773.11
  A 0.67 0.67 0.0 0 0 634.61 771.79
  C 628.68 770.36 628.91 766.01 628.87 760.46
  Q 628.80 751.61 628.88 737.07
  Q 628.90 734.21 629.53 733.07
  Q 630.73 730.90 632.78 730.76
  A 1.26 1.25 -78.8 0 0 633.82 730.06
  L 634.00 729.68
  A 0.63 0.62 13.3 0 0 633.44 728.78
  Q 620.26 728.67 617.50 728.81
  Q 617.18 728.83 617.03 729.20
  Q 616.73 729.96 617.56 730.40
  Q 619.55 731.47 620.73 732.36
  A 3.94 3.93 -71.5 0 1 622.29 735.50
  L 622.29 747.25
  A 0.83 0.83 0.0 0 1 621.46 748.08
  L 600.96 748.08
  A 0.70 0.70 0.0 0 1 600.26 747.38
  L 600.26 734.76
  A 0.98 0.92 -32.8 0 1 600.37 734.32
  Q 602.02 731.33 604.80 730.16
  A 0.72 0.72 0.0 0 0 604.52 728.77
  L 588.78 728.77
  A 0.84 0.84 0.0 0 0 588.41 730.36
  L 591.49 731.87
  A 3.27 3.26 -77.1 0 1 593.32 734.79
  Q 593.37 749.63 593.26 765.00
  Q 593.22 770.82 588.50 771.71
  A 0.53 0.53 0.0 0 0 588.07 772.23
  L 588.07 772.50
  A 0.59 0.59 0.0 0 0 588.66 773.09
  L 604.76 773.09
  A 0.58 0.58 0.0 0 0 605.07 772.02
  Q 604.48 771.65 603.82 771.52
  A 1.91 1.90 78.3 0 1 602.62 770.73
  Q 600.18 767.23 600.22 765.00
  Q 600.28 761.00 600.31 751.50
  A 0.58 0.57 -89.5 0 1 600.88 750.93
  L 621.55 750.93
  A 0.69 0.69 0.0 0 1 622.24 751.58"
/>
<path stroke="#888888" vector-effect="non-scaling-stroke" d="
  M 321.49 730.21
  Q 325.88 730.40 326.15 734.77
  Q 326.52 740.78 326.20 755.49
  C 326.15 757.84 325.59 759.52 325.07 761.95
  Q 323.77 767.94 317.08 770.07
  C 305.78 773.66 301.12 764.48 301.03 755.01
  Q 300.88 737.16 301.09 734.62
  C 301.29 732.32 301.94 731.41 303.87 730.45
  A 0.90 0.90 0.0 0 0 303.46 728.74
  L 289.62 728.74
  A 0.64 0.63 67.7 0 0 289.17 729.82
  Q 289.78 730.44 290.84 730.84
  C 292.90 731.63 294.00 733.23 294.05 735.50
  Q 294.28 745.92 294.19 755.13
  Q 294.12 762.12 295.71 765.11
  Q 298.26 769.93 302.92 772.05
  Q 312.98 776.64 322.54 770.00
  C 327.21 766.76 328.56 760.90 328.72 755.50
  Q 328.96 747.47 328.92 734.00
  A 2.27 2.24 68.0 0 1 329.59 732.39
  L 332.32 729.65
  A 0.57 0.57 0.0 0 0 331.92 728.68
  L 321.42 728.68
  A 0.55 0.55 0.0 0 0 320.87 729.23
  L 320.87 729.55
  A 0.66 0.65 -88.6 0 0 321.49 730.21"
/>
<path stroke="#888888" vector-effect="non-scaling-stroke" d="
  M 396.50 772.95
  Q 400.46 772.94 404.78 773.07
  Q 405.19 773.08 405.42 772.87
  A 0.61 0.53 -58.5 0 0 405.25 771.86
  C 401.17 771.16 400.06 766.97 399.95 763.21
  Q 399.66 752.51 399.89 736.60
  C 399.95 732.13 401.63 731.95 404.76 730.03
  A 0.71 0.71 0.0 0 0 404.44 728.72
  Q 403.79 728.68 396.34 728.71
  Q 388.89 728.73 388.24 728.78
  A 0.71 0.71 0.0 0 0 387.93 730.09
  C 391.07 731.99 392.75 732.16 392.84 736.63
  Q 393.19 752.53 392.98 763.24
  C 392.90 767.00 391.82 771.19 387.74 771.92
  A 0.61 0.53 58.1 0 0 387.58 772.94
  Q 387.81 773.14 388.23 773.13
  Q 392.54 772.97 396.50 772.95"
/>
<path stroke="#888888" vector-effect="non-scaling-stroke" d="
  M 547.05 755.88
  L 547.05 743.08
  A 0.29 0.29 0.0 0 0 546.76 742.79
  L 546.43 742.79
  A 0.63 0.63 0.0 0 0 545.80 743.38
  Q 545.53 747.06 542.40 748.50
  A 1.02 0.87 28.9 0 1 542.01 748.58
  L 533.62 748.58
  A 0.66 0.66 0.0 0 1 532.96 747.92
  L 532.96 731.65
  A 0.57 0.57 0.0 0 1 533.52 731.08
  Q 542.84 731.01 545.99 732.29
  Q 549.81 733.85 550.13 737.11
  A 1.23 1.21 -87.9 0 0 551.13 738.20
  L 551.41 738.25
  A 0.49 0.48 5.1 0 0 551.98 737.78
  L 551.98 729.17
  A 0.38 0.38 0.0 0 0 551.60 728.79
  L 521.04 728.79
  A 0.71 0.71 0.0 0 0 520.84 730.18
  C 526.54 731.84 525.84 735.59 525.82 741.43
  Q 525.80 752.50 525.88 764.74
  Q 525.90 767.95 523.58 770.57
  A 1.50 1.48 -75.7 0 1 522.82 771.03
  L 520.60 771.56
  A 0.50 0.50 0.0 0 0 520.21 772.05
  L 520.21 772.40
  A 0.54 0.54 0.0 0 0 520.75 772.94
  L 554.37 772.94
  A 1.59 1.59 0.0 0 0 555.94 771.62
  L 557.58 762.32
  A 0.63 0.63 0.0 0 0 556.44 761.84
  Q 553.50 765.97 552.75 766.77
  C 548.86 770.92 542.38 771.11 536.68 770.75
  A 1.94 1.91 65.6 0 1 535.62 770.34
  Q 533.11 768.41 533.01 765.97
  Q 532.81 761.21 532.97 751.81
  A 0.72 0.71 -89.2 0 1 533.68 751.11
  L 541.77 751.11
  A 1.04 1.03 72.8 0 1 542.63 751.57
  C 543.53 752.94 545.17 753.79 545.45 755.10
  Q 545.66 756.07 546.61 756.25
  A 0.38 0.37 -84.9 0 0 547.05 755.88"
/>
<path stroke="#888888" vector-effect="non-scaling-stroke" d="
  M 767.52 755.57
  A 0.82 0.82 0.0 0 0 769.13 755.36
  L 769.13 744.57
  A 0.72 0.71 -36.4 0 0 767.73 744.36
  L 766.99 746.73
  A 1.38 1.38 0.0 0 1 766.22 747.58
  Q 763.60 748.74 763.23 748.73
  Q 758.48 748.63 755.68 748.76
  A 0.76 0.76 0.0 0 1 754.88 748.00
  L 754.88 731.73
  A 0.62 0.62 0.0 0 1 755.48 731.11
  C 760.30 730.90 766.82 731.03 770.48 734.01
  Q 772.49 735.65 772.37 738.01
  A 0.77 0.77 0.0 0 0 773.14 738.83
  L 773.46 738.83
  A 0.46 0.45 -0.0 0 0 773.92 738.38
  L 773.92 729.44
  A 0.56 0.56 0.0 0 0 773.36 728.88
  L 743.58 728.88
  A 0.85 0.85 0.0 0 0 743.42 730.57
  C 747.07 731.24 747.83 733.55 747.84 737.25
  Q 747.93 762.48 747.75 765.41
  Q 747.39 770.97 742.55 771.64
  A 0.74 0.73 86.0 0 0 741.92 772.37
  L 741.92 772.68
  A 0.40 0.40 0.0 0 0 742.32 773.08
  L 776.03 773.08
  A 2.15 2.14 -84.9 0 0 778.14 771.31
  L 779.72 762.31
  A 0.65 0.64 -85.1 0 0 779.09 761.55
  L 778.74 761.55
  A 1.25 1.25 0.0 0 0 777.55 762.41
  C 775.01 770.08 766.22 771.49 758.91 770.71
  A 2.30 2.29 62.7 0 1 758.01 770.42
  Q 754.84 768.55 754.78 763.99
  Q 754.74 760.73 754.82 751.81
  A 0.62 0.62 0.0 0 1 755.42 751.19
  Q 762.08 750.93 762.94 751.24
  Q 766.74 752.60 767.52 755.57"
/>
<path stroke="#888888" vector-effect="non-scaling-stroke" d="
  M 804.57 728.90
  L 789.29 728.90
  A 0.86 0.86 0.0 0 0 789.13 730.60
  C 792.72 731.28 793.62 733.60 793.65 737.22
  Q 793.78 752.13 793.71 764.95
  Q 793.69 770.52 788.50 771.89
  A 0.63 0.63 0.0 0 0 788.66 773.13
  L 822.09 773.13
  A 1.07 1.06 -83.0 0 0 823.12 772.32
  L 825.52 762.27
  A 0.71 0.71 0.0 0 0 824.89 761.40
  Q 824.10 761.34 823.80 761.84
  Q 817.32 772.94 804.23 770.72
  A 2.56 2.54 -19.4 0 1 802.98 770.13
  Q 800.76 768.19 800.49 765.65
  Q 800.37 764.54 800.51 734.71
  A 2.19 2.10 60.7 0 1 800.76 733.74
  Q 802.02 731.34 804.81 730.50
  A 0.82 0.82 0.0 0 0 804.57 728.90"
/>
<path stroke="#7c5438" vector-effect="non-scaling-stroke" d="
  M 581.15 369.81
  Q 580.36 369.64 579.91 369.33
  Q 568.02 361.24 556.45 357.33
  Q 554.34 356.61 551.80 355.30
  A 0.81 0.81 0.0 0 1 551.77 353.88
  C 567.73 344.63 581.91 331.75 591.31 315.85
  Q 604.25 293.95 605.83 268.82
  Q 606.32 261.01 605.28 254.26
  Q 604.14 246.90 601.87 240.09
  C 598.29 229.40 592.35 220.51 583.72 213.51
  C 577.76 208.68 571.76 204.51 565.49 202.05
  Q 552.27 196.87 536.93 194.97
  C 533.82 194.58 531.10 194.84 528.22 194.35
  Q 525.48 193.89 521.75 193.88
  Q 491.50 193.76 442.39 193.87
  C 436.84 193.88 431.45 193.70 423.75 193.83
  Q 403.97 194.17 384.32 193.84
  A 0.59 0.59 0.0 0 0 384.02 194.94
  C 393.60 200.34 402.51 207.83 405.85 218.36
  Q 407.14 222.46 407.14 232.93
  C 407.12 285.96 406.85 327.47 407.23 373.36
  Q 407.67 425.35 407.23 483.08
  A 3.58 3.33 -38.9 0 1 407.09 484.05
  Q 405.51 489.68 400.71 493.51
  Q 393.83 499.00 384.52 504.00
  Q 381.69 505.52 382.82 508.88
  A 0.69 0.67 80.3 0 0 383.46 509.34
  L 531.91 509.34
  A 3.69 3.69 0.0 0 0 532.72 509.25
  Q 536.46 508.40 540.06 508.40
  A 4.74 4.66 -50.7 0 0 541.07 508.29
  Q 542.98 507.88 548.15 507.05
  C 565.37 504.29 582.30 497.44 595.51 485.31
  Q 612.05 470.12 615.85 449.64
  C 619.28 431.15 616.83 413.31 607.59 396.39
  A 2.66 2.65 -50.7 0 1 607.39 394.32
  C 609.24 388.42 609.86 383.16 610.49 376.06
  C 610.97 370.65 610.41 365.45 609.74 360.53
  Q 607.03 340.89 592.02 328.08
  A 0.31 0.30 -56.2 0 0 591.55 328.18
  Q 585.55 340.02 574.82 348.52
  A 1.29 1.28 52.2 0 0 574.60 350.31
  C 578.47 355.37 582.12 362.84 581.66 369.43
  A 0.42 0.42 0.0 0 1 581.15 369.81"
/>
<path stroke="#7c5438" vector-effect="non-scaling-stroke" d="
  M 442.00 210.30
  L 442.00 294.88
  A 0.85 0.85 0.0 0 0 442.85 295.73
  L 509.92 295.94
  A 0.78 0.36 -20.3 0 1 510.05 295.95
  Q 512.19 296.41 518.05 297.01
  Q 532.00 298.43 545.92 303.62
  Q 555.42 307.17 563.19 312.82
  A 1.31 1.30 33.5 0 0 565.07 312.44
  Q 570.13 304.14 573.17 295.22
  Q 575.25 289.08 576.59 276.01
  Q 577.14 270.62 576.35 262.20
  Q 575.68 254.98 573.37 248.79
  Q 569.55 238.56 564.90 232.77
  Q 553.68 218.79 535.91 213.58
  Q 523.19 209.84 510.50 209.82
  Q 484.45 209.77 450.89 210.14
  C 447.87 210.17 444.92 209.72 442.44 209.84
  A 0.46 0.46 0.0 0 0 442.00 210.30"
/>
<path stroke="#7c5438" vector-effect="non-scaling-stroke" d="
  M 442.03 314.84
  L 442.03 352.60
  A 1.24 1.24 0.0 0 0 443.25 353.84
  Q 466.15 354.26 492.36 353.69
  Q 496.00 353.61 499.77 353.13
  Q 505.39 352.41 507.11 352.11
  Q 531.56 347.85 549.37 331.30
  A 1.06 1.06 0.0 0 0 549.31 329.70
  Q 539.72 321.95 528.17 318.08
  Q 518.03 314.69 510.25 314.22
  Q 502.05 313.71 479.75 314.01
  Q 460.96 314.27 443.05 313.85
  A 1.00 0.99 0.6 0 0 442.03 314.84"
/>
<path stroke="#5e4938" vector-effect="non-scaling-stroke" d="
  M 512.23 494.48
  Q 537.55 494.25 556.64 481.89
  Q 583.96 464.20 582.95 429.95"
/>
<path stroke="#7c5438" vector-effect="non-scaling-stroke" d="
  M 582.95 429.95
  Q 582.37 420.05 580.76 414.66
  Q 578.85 408.29 576.14 403.57
  Q 566.34 386.55 548.15 377.83
  C 544.69 376.17 541.61 375.33 536.84 373.77
  Q 531.34 371.97 528.15 371.49
  Q 519.47 370.19 510.50 370.08
  Q 491.83 369.86 442.61 370.11
  A 0.69 0.69 0.0 0 0 441.92 370.80
  L 441.92 493.62
  A 0.87 0.86 -90.0 0 0 442.78 494.49
  L 512.23 494.48"
/>
<path stroke="#301b11" vector-effect="non-scaling-stroke" d="
  M 582.95 429.95
  L 582.81 429.64
  A 0.28 0.28 0.0 0 0 582.35 429.56
  Q 582.24 429.68 582.13 429.89"
/>
<path stroke="#a79388" vector-effect="non-scaling-stroke" d="
  M 582.13 429.89
  C 580.32 391.85 547.54 371.16 512.25 371.21
  Q 467.34 371.27 443.51 371.15
  A 0.44 0.43 0.0 0 0 443.07 371.58
  L 443.07 493.16
  A 0.48 0.48 0.0 0 0 443.55 493.64
  L 512.94 493.63"
/>
<path stroke="#301b11" vector-effect="non-scaling-stroke" d="
  M 512.94 493.63
  L 512.23 494.48"
/>
<path stroke="#888888" vector-effect="non-scaling-stroke" d="
  M 582.13 429.89
  Q 582.74 466.19 552.21 483.68
  Q 534.99 493.54 512.94 493.63"
/>
<path stroke="#a79388" vector-effect="non-scaling-stroke" d="
  M 443.83 294.77
  Q 449.35 294.83 493.29 294.62
  Q 512.06 294.53 527.01 297.26
  Q 546.66 300.84 563.73 311.92
  A 0.60 0.59 -58.0 0 0 564.56 311.72
  Q 574.61 294.80 575.73 274.98
  C 577.09 251.18 567.19 230.23 546.07 218.76
  C 537.84 214.29 525.41 211.18 516.07 211.14
  Q 504.38 211.09 443.30 210.84
  A 0.24 0.24 0.0 0 0 443.06 211.08
  L 443.06 294.00
  A 0.78 0.77 0.4 0 0 443.83 294.77"
/>
<path stroke="#a79388" vector-effect="non-scaling-stroke" d="
  M 548.24 330.06
  Q 536.19 320.12 519.98 316.54
  Q 511.90 314.76 494.93 314.92
  Q 464.56 315.20 443.67 314.71
  A 0.60 0.60 0.0 0 0 443.05 315.31
  L 443.05 352.32
  A 0.48 0.48 0.0 0 0 443.53 352.80
  Q 474.65 352.80 478.61 352.86
  Q 497.61 353.18 507.31 351.28
  C 522.82 348.24 536.88 342.01 548.27 330.92
  A 0.58 0.57 -47.2 0 0 548.24 330.06"
/>
<path stroke="#888888" vector-effect="non-scaling-stroke" d="
  M 699.17 631.54
  A 0.65 0.65 0.0 0 0 699.77 632.42
  L 727.44 632.42
  A 0.65 0.65 0.0 0 0 728.04 631.52
  L 713.49 597.18
  A 0.65 0.65 0.0 0 0 712.28 597.20
  L 699.17 631.54"
/>
<path stroke="#888888" vector-effect="non-scaling-stroke" d="
  M 277.90 580.21
  L 278.10 619.33
  A 0.39 0.39 0.0 0 0 278.49 619.71
  L 288.59 619.66
  A 18.95 18.45 -0.3 0 0 307.45 601.11
  L 307.43 598.11
  A 18.95 18.45 -0.3 0 0 288.39 579.76
  L 278.29 579.82
  A 0.39 0.39 0.0 0 0 277.90 580.21"
/>
<path stroke="#888888" vector-effect="non-scaling-stroke" d="
  M 277.90 626.03
  L 277.90 659.07
  A 4.11 4.00 37.5 0 0 278.07 660.23
  C 279.66 665.60 281.56 669.74 287.48 670.00
  C 297.26 670.43 307.01 668.24 311.40 658.85
  C 316.29 648.41 312.27 633.03 301.18 628.59
  Q 291.90 624.87 278.56 625.34
  A 0.69 0.68 89.1 0 0 277.90 626.03"
/>
<path stroke="#888888" vector-effect="non-scaling-stroke" d="
  M 586.15 580.99
  L 586.15 622.93
  A 1.00 1.00 0.0 0 0 587.15 623.93
  L 597.14 623.93
  A 21.10 20.67 -90.0 0 0 617.81 602.83
  L 617.81 601.09
  A 21.10 20.67 90.0 0 0 597.14 579.99
  L 587.15 579.99
  A 1.00 1.00 0.0 0 0 586.15 580.99"
/>
<path stroke="#888888" vector-effect="non-scaling-stroke" d="
  M 257.9138 729.5354
  A 20.99 14.91 -91.3 0 0 243.4838 750.8583
  A 20.99 14.91 -91.3 0 0 258.8662 771.5046
  A 20.99 14.91 -91.3 0 0 273.2962 750.1817
  A 20.99 14.91 -91.3 0 0 257.9138 729.5354"
/>
<path stroke="#888888" vector-effect="non-scaling-stroke" d="
  M 436.0326 729.6753
  A 20.60 14.79 -91.3 0 0 421.7138 750.6055
  A 20.60 14.79 -91.3 0 0 436.9674 770.8647
  A 20.60 14.79 -91.3 0 0 451.2862 749.9345
  A 20.60 14.79 -91.3 0 0 436.0326 729.6753"
/>
<path stroke="#888888" vector-effect="non-scaling-stroke" d="
  M 665.0018 729.7216
  A 21.06 14.85 -91.9 0 0 650.8582 751.2624
  A 21.06 14.85 -91.9 0 0 666.3982 771.8184
  A 21.06 14.85 -91.9 0 0 680.5418 750.2776
  A 21.06 14.85 -91.9 0 0 665.0018 729.7216"
/>
<path stroke="#888888" vector-effect="non-scaling-stroke" d="
  M 203.55 731.48
  L 203.57 747.84
  A 0.48 0.48 0.0 0 0 204.06 748.32
  L 208.00 748.31
  A 8.62 8.16 -0.1 0 0 216.60 740.14
  L 216.60 739.14
  A 8.62 8.16 -0.1 0 0 207.96 730.99
  L 204.02 731.00
  A 0.48 0.48 0.0 0 0 203.55 731.48"
/>
<path stroke="#888888" vector-effect="non-scaling-stroke" d="
  M 203.57 751.39
  Q 203.25 763.16 203.72 766.47
  Q 204.08 769.05 206.66 770.63
  A 2.17 2.16 62.3 0 0 207.68 770.95
  Q 214.80 771.34 218.29 765.36
  A 3.12 3.12 0.0 0 0 218.65 764.40
  Q 220.94 753.04 209.77 750.72
  Q 208.66 750.49 204.13 750.81
  A 0.59 0.59 0.0 0 0 203.57 751.39"
/>
</g>
<path fill="#ffffff" d="
  M 1024.00 0.00
  L 1024.00 1024.00
  L 0.00 1024.00
  L 0.00 0.00
  L 1024.00 0.00
  Z
  M 591.10 327.07
  Q 588.31 332.25 586.78 334.51
  C 583.09 339.98 578.38 344.26 573.36 348.87
  A 0.72 0.72 0.0 0 0 573.28 349.85
  Q 579.71 357.90 581.01 368.59
  A 0.33 0.33 0.0 0 1 580.48 368.90
  Q 567.91 359.60 552.51 355.11
  A 0.52 0.52 0.0 0 1 552.40 354.16
  Q 588.07 334.07 601.61 295.94
  Q 606.69 281.61 606.87 261.57
  Q 606.90 258.61 606.04 253.68
  Q 604.91 247.16 604.60 245.90
  C 595.83 210.64 564.86 196.10 531.32 193.35
  Q 525.44 192.86 513.66 192.88
  Q 445.18 192.99 383.20 192.84
  A 0.56 0.56 0.0 0 0 382.63 193.35
  L 382.49 194.92
  A 0.92 0.91 -72.7 0 0 382.95 195.81
  C 393.81 201.83 402.30 208.89 405.33 221.17
  C 406.36 225.36 406.09 230.34 406.08 235.75
  Q 406.00 267.56 406.04 447.25
  Q 406.04 455.70 406.43 482.38
  A 4.58 4.55 -39.1 0 1 406.33 483.33
  Q 405.21 488.72 399.29 493.31
  Q 391.81 499.12 382.73 504.01
  A 2.10 2.08 -11.5 0 0 381.64 505.64
  L 381.28 509.57
  A 0.72 0.71 -87.1 0 0 381.99 510.36
  Q 477.09 510.42 519.90 510.42
  Q 529.88 510.42 538.05 509.43
  Q 547.60 508.28 555.92 506.38
  Q 577.54 501.47 594.05 487.64
  Q 613.87 471.03 617.66 445.52
  Q 619.26 434.80 617.29 420.64
  C 616.08 411.95 612.36 403.49 608.11 395.62
  A 0.97 0.95 -50.2 0 1 608.05 394.89
  C 615.56 371.89 612.11 342.62 591.94 326.90
  A 0.56 0.56 0.0 0 0 591.10 327.07
  Z
  M 666.66 675.18
  L 698.22 675.18
  A 0.98 0.98 0.0 0 0 698.41 673.24
  Q 695.22 672.62 692.00 670.26
  C 688.48 667.68 688.73 661.85 689.75 657.98
  Q 692.41 647.94 696.36 638.63
  A 1.15 1.14 -78.2 0 1 697.41 637.94
  L 729.97 637.94
  A 1.11 1.11 0.0 0 1 730.99 638.61
  Q 737.23 653.19 739.41 659.12
  C 742.94 668.75 740.92 672.50 730.34 672.84
  A 1.57 1.57 0.0 0 0 728.88 674.00
  L 728.79 674.35
  A 0.65 0.64 -82.2 0 0 729.41 675.17
  L 771.92 675.17
  A 1.16 1.16 0.0 0 0 772.23 672.89
  C 766.03 671.17 760.70 669.36 758.12 662.87
  C 754.66 654.16 750.13 644.64 746.90 636.49
  Q 745.00 631.69 737.54 614.16
  Q 731.81 600.69 722.12 577.91
  C 720.80 574.79 720.53 572.60 716.89 573.67
  A 1.64 1.63 3.1 0 0 715.85 574.60
  C 711.05 585.93 706.90 597.90 702.65 608.73
  Q 693.31 632.51 683.79 657.04
  Q 681.99 661.67 679.00 666.31
  Q 677.06 669.33 671.60 671.95
  C 669.53 672.95 668.01 672.00 666.10 673.69
  A 0.85 0.85 0.0 0 0 666.66 675.18
  Z
  M 408.79 672.85
  C 401.12 672.48 395.86 668.61 396.03 660.49
  Q 396.04 660.38 396.09 629.00
  Q 396.09 626.88 397.53 624.54
  Q 402.67 616.15 414.36 596.05
  C 416.16 592.95 417.76 591.06 420.50 587.26
  Q 423.98 582.46 429.44 578.96
  Q 430.40 578.34 436.48 576.94
  A 0.92 0.91 -18.9 0 0 437.11 575.67
  L 437.09 575.64
  A 1.73 1.72 76.5 0 0 435.55 574.69
  L 404.16 574.62
  A 0.77 0.76 -0.0 0 0 403.39 575.38
  L 403.39 575.86
  A 1.33 1.33 0.0 0 0 404.57 577.18
  C 409.25 577.68 414.02 579.08 413.13 585.03
  Q 412.49 589.33 410.34 593.07
  Q 404.35 603.51 392.92 622.44
  A 0.96 0.94 -58.1 0 1 391.59 622.76
  Q 391.22 622.53 391.15 622.36
  Q 390.82 621.64 379.07 600.47
  C 376.42 595.69 373.25 590.90 371.31 586.22
  Q 369.35 581.50 371.78 578.82
  C 373.11 577.37 375.11 577.17 377.58 576.58
  A 0.98 0.98 0.0 0 0 377.35 574.64
  L 339.06 574.65
  A 0.96 0.96 0.0 0 0 338.14 575.33
  L 338.01 575.73
  A 0.87 0.87 0.0 0 0 338.58 576.82
  L 347.90 579.75
  A 1.22 1.15 73.4 0 1 348.38 580.03
  Q 352.43 583.90 353.45 585.56
  Q 359.45 595.22 374.64 623.09
  C 378.55 630.26 380.14 633.42 379.86 639.98
  Q 379.52 647.77 379.74 657.15
  C 379.96 666.19 377.36 673.13 366.96 672.27
  A 2.15 2.15 0.0 0 0 364.73 673.78
  L 364.58 674.26
  A 0.66 0.66 0.0 0 0 365.21 675.12
  L 408.62 675.12
  A 0.63 0.62 -90.0 0 0 409.24 674.49
  L 409.24 673.33
  A 0.48 0.48 0.0 0 0 408.79 672.85
  Z
  M 303.89 620.44
  Q 315.27 618.62 321.43 609.49
  C 325.02 604.18 324.87 597.41 323.89 590.89
  A 5.38 5.13 29.0 0 0 323.42 589.39
  Q 319.57 581.52 312.41 578.62
  Q 302.71 574.68 296.68 574.69
  Q 266.86 574.77 248.38 574.65
  A 0.96 0.95 88.1 0 0 247.42 575.68
  L 247.45 576.18
  A 1.06 1.04 -87.9 0 0 248.32 577.13
  C 254.47 578.12 260.10 578.07 261.64 585.63
  C 262.16 588.14 262.32 589.82 262.34 592.32
  Q 262.68 631.07 262.32 659.01
  C 262.25 664.26 260.08 669.64 254.68 671.71
  A 1.91 1.81 28.2 0 1 254.35 671.80
  L 248.84 672.56
  A 1.64 1.63 4.4 0 0 247.48 673.72
  L 247.40 673.99
  A 0.94 0.94 0.0 0 0 248.32 675.15
  Q 281.69 675.00 292.75 675.14
  C 305.92 675.31 319.87 672.45 327.11 660.93
  Q 330.36 655.76 331.15 650.25
  C 332.91 638.00 327.04 627.96 315.11 623.89
  Q 309.58 622.00 303.88 620.94
  A 0.25 0.25 0.0 0 1 303.89 620.44
  Z
  M 504.30 579.84
  C 511.43 579.58 518.87 579.53 525.15 581.39
  Q 529.08 582.55 529.79 583.06
  Q 532.62 585.09 534.96 588.30
  C 537.28 591.47 538.02 594.85 539.36 598.41
  A 1.91 1.80 61.1 0 0 542.20 599.32
  Q 543.08 598.64 542.92 597.01
  Q 542.40 591.76 542.38 591.49
  Q 541.94 586.83 542.01 575.51
  A 0.86 0.85 90.0 0 0 541.16 574.65
  L 450.99 574.65
  A 1.09 1.09 0.0 0 0 449.90 575.72
  Q 449.69 587.00 449.24 597.99
  Q 449.19 599.08 450.23 599.37
  A 2.11 2.02 -73.5 0 0 452.72 597.94
  C 453.66 594.89 454.52 591.72 456.20 589.28
  Q 460.45 583.12 467.13 581.14
  C 473.65 579.20 481.47 579.97 487.44 579.93
  A 0.51 0.51 0.0 0 1 487.95 580.44
  Q 487.90 619.61 487.92 657.97
  C 487.92 665.04 484.53 672.19 476.03 672.15
  Q 474.14 672.14 471.55 673.02
  A 1.13 1.12 58.1 0 0 471.12 674.89
  Q 471.13 674.89 471.29 675.10
  A 0.28 0.27 -17.4 0 0 471.51 675.21
  L 519.23 675.20
  A 1.09 1.09 0.0 0 0 519.59 673.09
  Q 517.49 672.34 515.29 672.18
  C 510.02 671.80 505.41 668.71 504.17 663.73
  Q 504.04 663.23 504.03 653.27
  Q 503.95 607.19 503.90 580.26
  A 0.41 0.41 0.0 0 1 504.30 579.84
  Z
  M 586.53 629.12
  C 595.54 628.59 598.93 630.17 603.81 637.73
  Q 607.20 642.98 611.49 650.59
  C 613.72 654.56 615.43 657.05 617.82 661.10
  C 621.12 666.68 625.21 670.52 630.12 673.95
  A 4.56 4.47 -17.7 0 0 631.29 674.54
  Q 635.72 676.00 637.28 676.32
  Q 640.76 677.03 645.43 675.64
  A 4.92 3.71 26.4 0 1 646.18 675.50
  L 654.99 674.67
  A 0.78 0.77 85.5 0 0 655.69 673.84
  L 655.66 673.52
  A 1.41 1.40 87.4 0 0 654.24 672.22
  C 646.20 672.35 640.92 667.47 636.44 661.05
  C 631.78 654.35 627.15 645.57 622.32 638.54
  Q 616.99 630.78 614.04 627.45
  A 0.55 0.55 0.0 0 1 614.27 626.57
  C 627.74 621.85 638.94 608.74 634.31 593.90
  Q 630.95 583.16 619.33 578.66
  C 612.04 575.84 605.72 574.51 597.38 574.60
  Q 585.14 574.73 556.95 574.61
  A 1.27 1.27 0.0 0 0 555.67 575.90
  L 555.67 575.96
  A 1.56 1.54 0.8 0 0 557.15 577.47
  Q 564.91 577.81 568.20 582.40
  A 1.36 1.16 22.0 0 1 568.33 582.65
  Q 570.04 587.76 570.09 590.49
  Q 570.45 612.74 570.21 659.03
  C 570.19 661.92 569.56 663.97 568.49 666.78
  Q 566.55 671.88 556.62 672.84
  A 1.05 1.04 -2.7 0 0 555.67 673.88
  L 555.67 674.31
  A 0.81 0.81 0.0 0 0 556.48 675.12
  L 599.49 675.12
  A 1.05 1.05 0.0 0 0 599.73 673.04
  C 595.24 672.00 591.14 671.26 588.44 667.60
  C 586.91 665.53 586.23 660.72 586.26 657.65
  Q 586.41 641.86 586.12 629.57
  A 0.44 0.44 0.0 0 1 586.53 629.12
  Z
  M 260.34 727.72
  Q 254.25 727.82 253.26 728.02
  Q 242.28 730.23 237.60 741.39
  C 235.45 746.52 235.70 755.42 237.89 760.53
  Q 243.73 774.21 259.14 773.78
  Q 265.60 773.61 271.61 769.49
  Q 276.80 765.93 279.28 758.87
  Q 283.11 747.97 277.63 738.03
  C 274.87 733.03 272.35 731.30 267.24 728.95
  Q 264.44 727.66 260.34 727.72
  Z
  M 368.74 773.10
  A 0.57 0.57 0.0 0 0 368.87 771.98
  Q 363.14 770.57 363.17 764.05
  Q 363.29 738.52 363.05 732.03
  A 0.53 0.52 -0.5 0 1 363.60 731.48
  L 371.79 731.81
  A 2.42 2.17 -29.7 0 1 372.53 731.97
  Q 377.30 733.84 378.26 739.22
  A 0.97 0.96 -3.6 0 0 379.18 740.02
  L 379.21 740.02
  A 0.75 0.75 0.0 0 0 379.94 739.21
  L 379.13 728.54
  A 0.74 0.74 0.0 0 0 378.21 727.87
  C 375.84 728.45 375.02 728.79 372.57 728.82
  Q 359.69 728.99 346.76 728.84
  Q 344.31 728.81 342.38 728.00
  A 1.36 1.36 0.0 0 0 340.51 729.03
  C 340.13 731.36 338.92 737.33 339.85 739.51
  A 0.61 0.60 39.4 0 0 341.00 739.40
  Q 341.60 736.47 344.20 733.44
  A 2.53 2.51 9.4 0 1 345.20 732.73
  Q 349.66 731.03 355.67 731.37
  A 0.71 0.70 -87.9 0 1 356.33 732.09
  Q 356.14 746.91 356.33 763.00
  Q 356.37 766.96 354.93 769.65
  A 3.56 3.55 -78.1 0 1 352.07 771.52
  L 349.80 771.69
  A 0.60 0.60 0.0 0 0 349.25 772.34
  L 349.27 772.66
  A 0.47 0.47 0.0 0 0 349.74 773.10
  L 368.74 773.10
  Z
  M 443.30 772.59
  L 451.32 767.96
  A 1.22 1.19 -84.2 0 0 451.62 767.71
  Q 463.31 754.36 456.01 738.73
  Q 451.81 729.71 441.20 727.83
  Q 439.32 727.50 431.88 727.84
  A 2.90 2.78 28.4 0 0 430.65 728.18
  C 428.99 729.09 427.17 728.90 425.34 730.02
  C 414.84 736.47 411.33 751.73 417.18 762.46
  Q 422.87 772.90 435.50 773.22
  A 1.17 1.16 -12.3 0 1 436.51 773.86
  Q 439.10 779.02 443.75 781.96
  Q 446.52 783.72 448.39 783.85
  Q 453.20 784.17 459.33 782.83
  Q 460.83 782.51 464.77 779.76
  A 0.94 0.93 -31.1 0 0 465.07 778.56
  L 465.04 778.51
  A 0.74 0.73 59.5 0 0 463.98 778.23
  C 456.13 783.33 448.46 780.16 443.18 773.20
  A 0.42 0.42 0.0 0 1 443.30 772.59
  Z
  M 643.36 749.82
  C 642.76 763.09 650.90 773.42 664.57 774.05
  C 678.25 774.67 687.30 765.12 687.90 751.86
  C 688.51 738.59 680.37 728.26 666.69 727.63
  C 653.02 727.01 643.97 736.56 643.36 749.82
  Z
  M 695.82 739.18
  C 696.52 738.18 696.69 735.91 697.55 735.00
  Q 700.07 732.32 701.91 731.86
  Q 703.22 731.53 710.25 731.50
  A 0.66 0.66 0.0 0 1 710.91 732.16
  Q 711.05 759.00 710.76 765.98
  Q 710.57 770.67 705.88 771.39
  A 1.16 1.15 -89.3 0 0 704.93 772.32
  L 704.91 772.38
  A 0.69 0.68 4.9 0 0 705.59 773.18
  L 723.85 773.09
  A 0.35 0.35 0.0 0 0 724.20 772.71
  L 724.18 772.42
  A 0.92 0.91 88.9 0 0 723.32 771.58
  C 718.88 771.35 717.71 766.37 717.74 762.31
  Q 717.90 737.58 717.67 732.02
  A 0.48 0.48 0.0 0 1 718.13 731.52
  C 724.30 731.28 732.01 731.38 732.93 739.17
  A 0.79 0.79 0.0 0 0 733.92 739.84
  L 734.21 739.76
  A 0.81 0.80 -9.9 0 0 734.79 738.94
  L 733.99 728.46
  A 0.69 0.69 0.0 0 0 733.03 727.87
  L 731.16 728.66
  A 3.29 3.13 -55.2 0 1 729.90 728.92
  Q 706.21 728.93 700.51 728.83
  Q 698.97 728.80 697.82 728.08
  A 1.69 1.68 18.7 0 0 695.24 729.35
  L 694.37 738.64
  A 0.80 0.80 0.0 0 0 695.82 739.18
  Z
  M 216.77 748.46
  C 222.31 746.01 224.24 742.68 223.43 736.73
  C 223.00 733.60 220.90 731.27 217.81 730.17
  Q 213.36 728.60 212.47 728.61
  Q 200.69 728.75 190.87 728.55
  A 0.56 0.56 0.0 0 0 190.30 729.11
  L 190.30 729.48
  A 0.78 0.78 0.0 0 0 190.94 730.25
  C 194.30 730.88 196.58 731.45 196.59 735.50
  Q 196.71 763.24 196.52 765.67
  Q 196.06 771.63 190.71 771.70
  A 0.76 0.75 3.4 0 0 189.96 772.36
  L 189.95 772.64
  A 0.38 0.38 0.0 0 0 190.33 773.03
  L 215.65 773.03
  A 1.67 1.61 30.5 0 0 216.40 772.85
  Q 217.55 772.28 218.74 771.85
  C 226.38 769.04 228.53 759.97 224.81 753.44
  A 2.71 2.67 -1.3 0 0 223.64 752.34
  L 216.76 748.99
  A 0.29 0.29 0.0 0 1 216.77 748.46
  Z
  M 483.63 728.71
  L 468.70 728.71
  A 0.73 0.72 57.8 0 0 468.39 730.09
  L 471.65 731.68
  A 2.84 2.82 13.2 0 1 473.24 734.22
  Q 473.24 747.69 473.60 757.69
  Q 473.97 767.75 482.95 772.19
  Q 488.33 774.85 492.78 773.95
  C 504.33 771.59 507.80 765.59 507.81 754.13
  Q 507.82 739.08 507.83 736.28
  C 507.84 733.27 508.27 731.49 511.03 730.21
  A 0.83 0.83 0.0 0 0 510.68 728.63
  L 500.75 728.63
  A 0.24 0.17 -54.2 0 0 500.63 728.67
  Q 500.08 728.99 500.28 729.73
  A 0.57 0.57 0.0 0 0 500.77 730.15
  Q 505.07 730.55 505.12 735.47
  Q 505.34 754.47 504.73 759.18
  C 503.72 767.09 497.75 772.47 489.71 770.54
  C 482.65 768.84 480.93 762.07 480.98 755.49
  Q 481.09 739.71 480.99 733.52
  A 2.13 2.10 -29.8 0 1 481.31 732.37
  Q 482.16 731.01 483.96 729.99
  A 0.69 0.68 -59.6 0 0 483.63 728.71
  Z
  M 622.24 751.58
  Q 622.35 753.25 622.27 760.76
  C 622.23 764.26 622.65 766.77 620.86 770.05
  A 1.88 1.86 4.3 0 1 619.85 770.91
  Q 619.27 771.11 618.09 771.50
  Q 617.41 771.72 617.31 772.42
  A 0.68 0.66 2.9 0 0 618.00 773.17
  Q 627.29 772.95 634.43 773.11
  A 0.67 0.67 0.0 0 0 634.61 771.79
  C 628.68 770.36 628.91 766.01 628.87 760.46
  Q 628.80 751.61 628.88 737.07
  Q 628.90 734.21 629.53 733.07
  Q 630.73 730.90 632.78 730.76
  A 1.26 1.25 -78.8 0 0 633.82 730.06
  L 634.00 729.68
  A 0.63 0.62 13.3 0 0 633.44 728.78
  Q 620.26 728.67 617.50 728.81
  Q 617.18 728.83 617.03 729.20
  Q 616.73 729.96 617.56 730.40
  Q 619.55 731.47 620.73 732.36
  A 3.94 3.93 -71.5 0 1 622.29 735.50
  L 622.29 747.25
  A 0.83 0.83 0.0 0 1 621.46 748.08
  L 600.96 748.08
  A 0.70 0.70 0.0 0 1 600.26 747.38
  L 600.26 734.76
  A 0.98 0.92 -32.8 0 1 600.37 734.32
  Q 602.02 731.33 604.80 730.16
  A 0.72 0.72 0.0 0 0 604.52 728.77
  L 588.78 728.77
  A 0.84 0.84 0.0 0 0 588.41 730.36
  L 591.49 731.87
  A 3.27 3.26 -77.1 0 1 593.32 734.79
  Q 593.37 749.63 593.26 765.00
  Q 593.22 770.82 588.50 771.71
  A 0.53 0.53 0.0 0 0 588.07 772.23
  L 588.07 772.50
  A 0.59 0.59 0.0 0 0 588.66 773.09
  L 604.76 773.09
  A 0.58 0.58 0.0 0 0 605.07 772.02
  Q 604.48 771.65 603.82 771.52
  A 1.91 1.90 78.3 0 1 602.62 770.73
  Q 600.18 767.23 600.22 765.00
  Q 600.28 761.00 600.31 751.50
  A 0.58 0.57 -89.5 0 1 600.88 750.93
  L 621.55 750.93
  A 0.69 0.69 0.0 0 1 622.24 751.58
  Z
  M 321.49 730.21
  Q 325.88 730.40 326.15 734.77
  Q 326.52 740.78 326.20 755.49
  C 326.15 757.84 325.59 759.52 325.07 761.95
  Q 323.77 767.94 317.08 770.07
  C 305.78 773.66 301.12 764.48 301.03 755.01
  Q 300.88 737.16 301.09 734.62
  C 301.29 732.32 301.94 731.41 303.87 730.45
  A 0.90 0.90 0.0 0 0 303.46 728.74
  L 289.62 728.74
  A 0.64 0.63 67.7 0 0 289.17 729.82
  Q 289.78 730.44 290.84 730.84
  C 292.90 731.63 294.00 733.23 294.05 735.50
  Q 294.28 745.92 294.19 755.13
  Q 294.12 762.12 295.71 765.11
  Q 298.26 769.93 302.92 772.05
  Q 312.98 776.64 322.54 770.00
  C 327.21 766.76 328.56 760.90 328.72 755.50
  Q 328.96 747.47 328.92 734.00
  A 2.27 2.24 68.0 0 1 329.59 732.39
  L 332.32 729.65
  A 0.57 0.57 0.0 0 0 331.92 728.68
  L 321.42 728.68
  A 0.55 0.55 0.0 0 0 320.87 729.23
  L 320.87 729.55
  A 0.66 0.65 -88.6 0 0 321.49 730.21
  Z
  M 396.50 772.95
  Q 400.46 772.94 404.78 773.07
  Q 405.19 773.08 405.42 772.87
  A 0.61 0.53 -58.5 0 0 405.25 771.86
  C 401.17 771.16 400.06 766.97 399.95 763.21
  Q 399.66 752.51 399.89 736.60
  C 399.95 732.13 401.63 731.95 404.76 730.03
  A 0.71 0.71 0.0 0 0 404.44 728.72
  Q 403.79 728.68 396.34 728.71
  Q 388.89 728.73 388.24 728.78
  A 0.71 0.71 0.0 0 0 387.93 730.09
  C 391.07 731.99 392.75 732.16 392.84 736.63
  Q 393.19 752.53 392.98 763.24
  C 392.90 767.00 391.82 771.19 387.74 771.92
  A 0.61 0.53 58.1 0 0 387.58 772.94
  Q 387.81 773.14 388.23 773.13
  Q 392.54 772.97 396.50 772.95
  Z
  M 547.05 755.88
  L 547.05 743.08
  A 0.29 0.29 0.0 0 0 546.76 742.79
  L 546.43 742.79
  A 0.63 0.63 0.0 0 0 545.80 743.38
  Q 545.53 747.06 542.40 748.50
  A 1.02 0.87 28.9 0 1 542.01 748.58
  L 533.62 748.58
  A 0.66 0.66 0.0 0 1 532.96 747.92
  L 532.96 731.65
  A 0.57 0.57 0.0 0 1 533.52 731.08
  Q 542.84 731.01 545.99 732.29
  Q 549.81 733.85 550.13 737.11
  A 1.23 1.21 -87.9 0 0 551.13 738.20
  L 551.41 738.25
  A 0.49 0.48 5.1 0 0 551.98 737.78
  L 551.98 729.17
  A 0.38 0.38 0.0 0 0 551.60 728.79
  L 521.04 728.79
  A 0.71 0.71 0.0 0 0 520.84 730.18
  C 526.54 731.84 525.84 735.59 525.82 741.43
  Q 525.80 752.50 525.88 764.74
  Q 525.90 767.95 523.58 770.57
  A 1.50 1.48 -75.7 0 1 522.82 771.03
  L 520.60 771.56
  A 0.50 0.50 0.0 0 0 520.21 772.05
  L 520.21 772.40
  A 0.54 0.54 0.0 0 0 520.75 772.94
  L 554.37 772.94
  A 1.59 1.59 0.0 0 0 555.94 771.62
  L 557.58 762.32
  A 0.63 0.63 0.0 0 0 556.44 761.84
  Q 553.50 765.97 552.75 766.77
  C 548.86 770.92 542.38 771.11 536.68 770.75
  A 1.94 1.91 65.6 0 1 535.62 770.34
  Q 533.11 768.41 533.01 765.97
  Q 532.81 761.21 532.97 751.81
  A 0.72 0.71 -89.2 0 1 533.68 751.11
  L 541.77 751.11
  A 1.04 1.03 72.8 0 1 542.63 751.57
  C 543.53 752.94 545.17 753.79 545.45 755.10
  Q 545.66 756.07 546.61 756.25
  A 0.38 0.37 -84.9 0 0 547.05 755.88
  Z
  M 767.52 755.57
  A 0.82 0.82 0.0 0 0 769.13 755.36
  L 769.13 744.57
  A 0.72 0.71 -36.4 0 0 767.73 744.36
  L 766.99 746.73
  A 1.38 1.38 0.0 0 1 766.22 747.58
  Q 763.60 748.74 763.23 748.73
  Q 758.48 748.63 755.68 748.76
  A 0.76 0.76 0.0 0 1 754.88 748.00
  L 754.88 731.73
  A 0.62 0.62 0.0 0 1 755.48 731.11
  C 760.30 730.90 766.82 731.03 770.48 734.01
  Q 772.49 735.65 772.37 738.01
  A 0.77 0.77 0.0 0 0 773.14 738.83
  L 773.46 738.83
  A 0.46 0.45 -0.0 0 0 773.92 738.38
  L 773.92 729.44
  A 0.56 0.56 0.0 0 0 773.36 728.88
  L 743.58 728.88
  A 0.85 0.85 0.0 0 0 743.42 730.57
  C 747.07 731.24 747.83 733.55 747.84 737.25
  Q 747.93 762.48 747.75 765.41
  Q 747.39 770.97 742.55 771.64
  A 0.74 0.73 86.0 0 0 741.92 772.37
  L 741.92 772.68
  A 0.40 0.40 0.0 0 0 742.32 773.08
  L 776.03 773.08
  A 2.15 2.14 -84.9 0 0 778.14 771.31
  L 779.72 762.31
  A 0.65 0.64 -85.1 0 0 779.09 761.55
  L 778.74 761.55
  A 1.25 1.25 0.0 0 0 777.55 762.41
  C 775.01 770.08 766.22 771.49 758.91 770.71
  A 2.30 2.29 62.7 0 1 758.01 770.42
  Q 754.84 768.55 754.78 763.99
  Q 754.74 760.73 754.82 751.81
  A 0.62 0.62 0.0 0 1 755.42 751.19
  Q 762.08 750.93 762.94 751.24
  Q 766.74 752.60 767.52 755.57
  Z
  M 804.57 728.90
  L 789.29 728.90
  A 0.86 0.86 0.0 0 0 789.13 730.60
  C 792.72 731.28 793.62 733.60 793.65 737.22
  Q 793.78 752.13 793.71 764.95
  Q 793.69 770.52 788.50 771.89
  A 0.63 0.63 0.0 0 0 788.66 773.13
  L 822.09 773.13
  A 1.07 1.06 -83.0 0 0 823.12 772.32
  L 825.52 762.27
  A 0.71 0.71 0.0 0 0 824.89 761.40
  Q 824.10 761.34 823.80 761.84
  Q 817.32 772.94 804.23 770.72
  A 2.56 2.54 -19.4 0 1 802.98 770.13
  Q 800.76 768.19 800.49 765.65
  Q 800.37 764.54 800.51 734.71
  A 2.19 2.10 60.7 0 1 800.76 733.74
  Q 802.02 731.34 804.81 730.50
  A 0.82 0.82 0.0 0 0 804.57 728.90
  Z"
/>
<path fill="#4e2611" d="
  M 591.10 327.07
  A 0.56 0.56 0.0 0 1 591.94 326.90
  C 612.11 342.62 615.56 371.89 608.05 394.89
  A 0.97 0.95 -50.2 0 0 608.11 395.62
  C 612.36 403.49 616.08 411.95 617.29 420.64
  Q 619.26 434.80 617.66 445.52
  Q 613.87 471.03 594.05 487.64
  Q 577.54 501.47 555.92 506.38
  Q 547.60 508.28 538.05 509.43
  Q 529.88 510.42 519.90 510.42
  Q 477.09 510.42 381.99 510.36
  A 0.72 0.71 -87.1 0 1 381.28 509.57
  L 381.64 505.64
  A 2.10 2.08 -11.5 0 1 382.73 504.01
  Q 391.81 499.12 399.29 493.31
  Q 405.21 488.72 406.33 483.33
  A 4.58 4.55 -39.1 0 0 406.43 482.38
  Q 406.04 455.70 406.04 447.25
  Q 406.00 267.56 406.08 235.75
  C 406.09 230.34 406.36 225.36 405.33 221.17
  C 402.30 208.89 393.81 201.83 382.95 195.81
  A 0.92 0.91 -72.7 0 1 382.49 194.92
  L 382.63 193.35
  A 0.56 0.56 0.0 0 1 383.20 192.84
  Q 445.18 192.99 513.66 192.88
  Q 525.44 192.86 531.32 193.35
  C 564.86 196.10 595.83 210.64 604.60 245.90
  Q 604.91 247.16 606.04 253.68
  Q 606.90 258.61 606.87 261.57
  Q 606.69 281.61 601.61 295.94
  Q 588.07 334.07 552.40 354.16
  A 0.52 0.52 0.0 0 0 552.51 355.11
  Q 567.91 359.60 580.48 368.90
  A 0.33 0.33 0.0 0 0 581.01 368.59
  Q 579.71 357.90 573.28 349.85
  A 0.72 0.72 0.0 0 1 573.36 348.87
  C 578.38 344.26 583.09 339.98 586.78 334.51
  Q 588.31 332.25 591.10 327.07
  Z
  M 581.15 369.81
  Q 580.36 369.64 579.91 369.33
  Q 568.02 361.24 556.45 357.33
  Q 554.34 356.61 551.80 355.30
  A 0.81 0.81 0.0 0 1 551.77 353.88
  C 567.73 344.63 581.91 331.75 591.31 315.85
  Q 604.25 293.95 605.83 268.82
  Q 606.32 261.01 605.28 254.26
  Q 604.14 246.90 601.87 240.09
  C 598.29 229.40 592.35 220.51 583.72 213.51
  C 577.76 208.68 571.76 204.51 565.49 202.05
  Q 552.27 196.87 536.93 194.97
  C 533.82 194.58 531.10 194.84 528.22 194.35
  Q 525.48 193.89 521.75 193.88
  Q 491.50 193.76 442.39 193.87
  C 436.84 193.88 431.45 193.70 423.75 193.83
  Q 403.97 194.17 384.32 193.84
  A 0.59 0.59 0.0 0 0 384.02 194.94
  C 393.60 200.34 402.51 207.83 405.85 218.36
  Q 407.14 222.46 407.14 232.93
  C 407.12 285.96 406.85 327.47 407.23 373.36
  Q 407.67 425.35 407.23 483.08
  A 3.58 3.33 -38.9 0 1 407.09 484.05
  Q 405.51 489.68 400.71 493.51
  Q 393.83 499.00 384.52 504.00
  Q 381.69 505.52 382.82 508.88
  A 0.69 0.67 80.3 0 0 383.46 509.34
  L 531.91 509.34
  A 3.69 3.69 0.0 0 0 532.72 509.25
  Q 536.46 508.40 540.06 508.40
  A 4.74 4.66 -50.7 0 0 541.07 508.29
  Q 542.98 507.88 548.15 507.05
  C 565.37 504.29 582.30 497.44 595.51 485.31
  Q 612.05 470.12 615.85 449.64
  C 619.28 431.15 616.83 413.31 607.59 396.39
  A 2.66 2.65 -50.7 0 1 607.39 394.32
  C 609.24 388.42 609.86 383.16 610.49 376.06
  C 610.97 370.65 610.41 365.45 609.74 360.53
  Q 607.03 340.89 592.02 328.08
  A 0.31 0.30 -56.2 0 0 591.55 328.18
  Q 585.55 340.02 574.82 348.52
  A 1.29 1.28 52.2 0 0 574.60 350.31
  C 578.47 355.37 582.12 362.84 581.66 369.43
  A 0.42 0.42 0.0 0 1 581.15 369.81
  Z"
/>
<path fill="#aa815f" d="
  M 581.15 369.81
  A 0.42 0.42 0.0 0 0 581.66 369.43
  C 582.12 362.84 578.47 355.37 574.60 350.31
  A 1.29 1.28 52.2 0 1 574.82 348.52
  Q 585.55 340.02 591.55 328.18
  A 0.31 0.30 -56.2 0 1 592.02 328.08
  Q 607.03 340.89 609.74 360.53
  C 610.41 365.45 610.97 370.65 610.49 376.06
  C 609.86 383.16 609.24 388.42 607.39 394.32
  A 2.66 2.65 -50.7 0 0 607.59 396.39
  C 616.83 413.31 619.28 431.15 615.85 449.64
  Q 612.05 470.12 595.51 485.31
  C 582.30 497.44 565.37 504.29 548.15 507.05
  Q 542.98 507.88 541.07 508.29
  A 4.74 4.66 -50.7 0 1 540.06 508.40
  Q 536.46 508.40 532.72 509.25
  A 3.69 3.69 0.0 0 1 531.91 509.34
  L 383.46 509.34
  A 0.69 0.67 80.3 0 1 382.82 508.88
  Q 381.69 505.52 384.52 504.00
  Q 393.83 499.00 400.71 493.51
  Q 405.51 489.68 407.09 484.05
  A 3.58 3.33 -38.9 0 0 407.23 483.08
  Q 407.67 425.35 407.23 373.36
  C 406.85 327.47 407.12 285.96 407.14 232.93
  Q 407.14 222.46 405.85 218.36
  C 402.51 207.83 393.60 200.34 384.02 194.94
  A 0.59 0.59 0.0 0 1 384.32 193.84
  Q 403.97 194.17 423.75 193.83
  C 431.45 193.70 436.84 193.88 442.39 193.87
  Q 491.50 193.76 521.75 193.88
  Q 525.48 193.89 528.22 194.35
  C 531.10 194.84 533.82 194.58 536.93 194.97
  Q 552.27 196.87 565.49 202.05
  C 571.76 204.51 577.76 208.68 583.72 213.51
  C 592.35 220.51 598.29 229.40 601.87 240.09
  Q 604.14 246.90 605.28 254.26
  Q 606.32 261.01 605.83 268.82
  Q 604.25 293.95 591.31 315.85
  C 581.91 331.75 567.73 344.63 551.77 353.88
  A 0.81 0.81 0.0 0 0 551.80 355.30
  Q 554.34 356.61 556.45 357.33
  Q 568.02 361.24 579.91 369.33
  Q 580.36 369.64 581.15 369.81
  Z
  M 442.00 210.30
  L 442.00 294.88
  A 0.85 0.85 0.0 0 0 442.85 295.73
  L 509.92 295.94
  A 0.78 0.36 -20.3 0 1 510.05 295.95
  Q 512.19 296.41 518.05 297.01
  Q 532.00 298.43 545.92 303.62
  Q 555.42 307.17 563.19 312.82
  A 1.31 1.30 33.5 0 0 565.07 312.44
  Q 570.13 304.14 573.17 295.22
  Q 575.25 289.08 576.59 276.01
  Q 577.14 270.62 576.35 262.20
  Q 575.68 254.98 573.37 248.79
  Q 569.55 238.56 564.90 232.77
  Q 553.68 218.79 535.91 213.58
  Q 523.19 209.84 510.50 209.82
  Q 484.45 209.77 450.89 210.14
  C 447.87 210.17 444.92 209.72 442.44 209.84
  A 0.46 0.46 0.0 0 0 442.00 210.30
  Z
  M 442.03 314.84
  L 442.03 352.60
  A 1.24 1.24 0.0 0 0 443.25 353.84
  Q 466.15 354.26 492.36 353.69
  Q 496.00 353.61 499.77 353.13
  Q 505.39 352.41 507.11 352.11
  Q 531.56 347.85 549.37 331.30
  A 1.06 1.06 0.0 0 0 549.31 329.70
  Q 539.72 321.95 528.17 318.08
  Q 518.03 314.69 510.25 314.22
  Q 502.05 313.71 479.75 314.01
  Q 460.96 314.27 443.05 313.85
  A 1.00 0.99 0.6 0 0 442.03 314.84
  Z
  M 512.23 494.48
  Q 537.55 494.25 556.64 481.89
  Q 583.96 464.20 582.95 429.95
  Q 582.37 420.05 580.76 414.66
  Q 578.85 408.29 576.14 403.57
  Q 566.34 386.55 548.15 377.83
  C 544.69 376.17 541.61 375.33 536.84 373.77
  Q 531.34 371.97 528.15 371.49
  Q 519.47 370.19 510.50 370.08
  Q 491.83 369.86 442.61 370.11
  A 0.69 0.69 0.0 0 0 441.92 370.80
  L 441.92 493.62
  A 0.87 0.86 -90.0 0 0 442.78 494.49
  L 512.23 494.48
  Z"
/>
<path fill="#4e2611" d="
  M 442.00 210.30
  A 0.46 0.46 0.0 0 1 442.44 209.84
  C 444.92 209.72 447.87 210.17 450.89 210.14
  Q 484.45 209.77 510.50 209.82
  Q 523.19 209.84 535.91 213.58
  Q 553.68 218.79 564.90 232.77
  Q 569.55 238.56 573.37 248.79
  Q 575.68 254.98 576.35 262.20
  Q 577.14 270.62 576.59 276.01
  Q 575.25 289.08 573.17 295.22
  Q 570.13 304.14 565.07 312.44
  A 1.31 1.30 33.5 0 1 563.19 312.82
  Q 555.42 307.17 545.92 303.62
  Q 532.00 298.43 518.05 297.01
  Q 512.19 296.41 510.05 295.95
  A 0.78 0.36 -20.3 0 0 509.92 295.94
  L 442.85 295.73
  A 0.85 0.85 0.0 0 1 442.00 294.88
  L 442.00 210.30
  Z
  M 443.83 294.77
  Q 449.35 294.83 493.29 294.62
  Q 512.06 294.53 527.01 297.26
  Q 546.66 300.84 563.73 311.92
  A 0.60 0.59 -58.0 0 0 564.56 311.72
  Q 574.61 294.80 575.73 274.98
  C 577.09 251.18 567.19 230.23 546.07 218.76
  C 537.84 214.29 525.41 211.18 516.07 211.14
  Q 504.38 211.09 443.30 210.84
  A 0.24 0.24 0.0 0 0 443.06 211.08
  L 443.06 294.00
  A 0.78 0.77 0.4 0 0 443.83 294.77
  Z"
/>
<path fill="#ffffff" d="
  M 443.06 294.00
  L 443.06 211.08
  A 0.24 0.24 0.0 0 1 443.30 210.84
  Q 504.38 211.09 516.07 211.14
  C 525.41 211.18 537.84 214.29 546.07 218.76
  C 567.19 230.23 577.09 251.18 575.73 274.98
  Q 574.61 294.80 564.56 311.72
  A 0.60 0.59 -58.0 0 1 563.73 311.92
  Q 546.66 300.84 527.01 297.26
  Q 512.06 294.53 493.29 294.62
  Q 449.35 294.83 443.83 294.77
  A 0.78 0.77 0.4 0 1 443.06 294.00
  Z"
/>
<path fill="#4e2611" d="
  M 442.03 314.84
  A 1.00 0.99 0.6 0 1 443.05 313.85
  Q 460.96 314.27 479.75 314.01
  Q 502.05 313.71 510.25 314.22
  Q 518.03 314.69 528.17 318.08
  Q 539.72 321.95 549.31 329.70
  A 1.06 1.06 0.0 0 1 549.37 331.30
  Q 531.56 347.85 507.11 352.11
  Q 505.39 352.41 499.77 353.13
  Q 496.00 353.61 492.36 353.69
  Q 466.15 354.26 443.25 353.84
  A 1.24 1.24 0.0 0 1 442.03 352.60
  L 442.03 314.84
  Z
  M 548.24 330.06
  Q 536.19 320.12 519.98 316.54
  Q 511.90 314.76 494.93 314.92
  Q 464.56 315.20 443.67 314.71
  A 0.60 0.60 0.0 0 0 443.05 315.31
  L 443.05 352.32
  A 0.48 0.48 0.0 0 0 443.53 352.80
  Q 474.65 352.80 478.61 352.86
  Q 497.61 353.18 507.31 351.28
  C 522.82 348.24 536.88 342.01 548.27 330.92
  A 0.58 0.57 -47.2 0 0 548.24 330.06
  Z"
/>
<path fill="#ffffff" d="
  M 548.27 330.92
  C 536.88 342.01 522.82 348.24 507.31 351.28
  Q 497.61 353.18 478.61 352.86
  Q 474.65 352.80 443.53 352.80
  A 0.48 0.48 0.0 0 1 443.05 352.32
  L 443.05 315.31
  A 0.60 0.60 0.0 0 1 443.67 314.71
  Q 464.56 315.20 494.93 314.92
  Q 511.90 314.76 519.98 316.54
  Q 536.19 320.12 548.24 330.06
  A 0.58 0.57 -47.2 0 1 548.27 330.92
  Z"
/>
<path fill="#4e2611" d="
  M 582.95 429.95
  L 582.81 429.64
  A 0.28 0.28 0.0 0 0 582.35 429.56
  Q 582.24 429.68 582.13 429.89
  C 580.32 391.85 547.54 371.16 512.25 371.21
  Q 467.34 371.27 443.51 371.15
  A 0.44 0.43 0.0 0 0 443.07 371.58
  L 443.07 493.16
  A 0.48 0.48 0.0 0 0 443.55 493.64
  L 512.94 493.63
  L 512.23 494.48
  L 442.78 494.49
  A 0.87 0.86 90.0 0 1 441.92 493.62
  L 441.92 370.80
  A 0.69 0.69 0.0 0 1 442.61 370.11
  Q 491.83 369.86 510.50 370.08
  Q 519.47 370.19 528.15 371.49
  Q 531.34 371.97 536.84 373.77
  C 541.61 375.33 544.69 376.17 548.15 377.83
  Q 566.34 386.55 576.14 403.57
  Q 578.85 408.29 580.76 414.66
  Q 582.37 420.05 582.95 429.95
  Z"
/>
<path fill="#ffffff" d="
  M 582.13 429.89
  Q 582.74 466.19 552.21 483.68
  Q 534.99 493.54 512.94 493.63
  L 443.55 493.64
  A 0.48 0.48 0.0 0 1 443.07 493.16
  L 443.07 371.58
  A 0.44 0.43 -0.0 0 1 443.51 371.15
  Q 467.34 371.27 512.25 371.21
  C 547.54 371.16 580.32 391.85 582.13 429.89
  Z"
/>
<path fill="#111011" d="
  M 582.95 429.95
  Q 583.96 464.20 556.64 481.89
  Q 537.55 494.25 512.23 494.48
  L 512.94 493.63
  Q 534.99 493.54 552.21 483.68
  Q 582.74 466.19 582.13 429.89
  Q 582.24 429.68 582.35 429.56
  A 0.28 0.28 0.0 0 1 582.81 429.64
  L 582.95 429.95
  Z"
/>
<path fill="#111011" d="
  M 666.66 675.18
  A 0.85 0.85 0.0 0 1 666.10 673.69
  C 668.01 672.00 669.53 672.95 671.60 671.95
  Q 677.06 669.33 679.00 666.31
  Q 681.99 661.67 683.79 657.04
  Q 693.31 632.51 702.65 608.73
  C 706.90 597.90 711.05 585.93 715.85 574.60
  A 1.64 1.63 3.1 0 1 716.89 573.67
  C 720.53 572.60 720.80 574.79 722.12 577.91
  Q 731.81 600.69 737.54 614.16
  Q 745.00 631.69 746.90 636.49
  C 750.13 644.64 754.66 654.16 758.12 662.87
  C 760.70 669.36 766.03 671.17 772.23 672.89
  A 1.16 1.16 0.0 0 1 771.92 675.17
  L 729.41 675.17
  A 0.65 0.64 -82.2 0 1 728.79 674.35
  L 728.88 674.00
  A 1.57 1.57 0.0 0 1 730.34 672.84
  C 740.92 672.50 742.94 668.75 739.41 659.12
  Q 737.23 653.19 730.99 638.61
  A 1.11 1.11 0.0 0 0 729.97 637.94
  L 697.41 637.94
  A 1.15 1.14 -78.2 0 0 696.36 638.63
  Q 692.41 647.94 689.75 657.98
  C 688.73 661.85 688.48 667.68 692.00 670.26
  Q 695.22 672.62 698.41 673.24
  A 0.98 0.98 0.0 0 1 698.22 675.18
  L 666.66 675.18
  Z
  M 699.17 631.54
  A 0.65 0.65 0.0 0 0 699.77 632.42
  L 727.44 632.42
  A 0.65 0.65 0.0 0 0 728.04 631.52
  L 713.49 597.18
  A 0.65 0.65 0.0 0 0 712.28 597.20
  L 699.17 631.54
  Z"
/>
<path fill="#111011" d="
  M 408.79 672.85
  A 0.48 0.48 0.0 0 1 409.24 673.33
  L 409.24 674.49
  A 0.63 0.62 90.0 0 1 408.62 675.12
  L 365.21 675.12
  A 0.66 0.66 0.0 0 1 364.58 674.26
  L 364.73 673.78
  A 2.15 2.15 0.0 0 1 366.96 672.27
  C 377.36 673.13 379.96 666.19 379.74 657.15
  Q 379.52 647.77 379.86 639.98
  C 380.14 633.42 378.55 630.26 374.64 623.09
  Q 359.45 595.22 353.45 585.56
  Q 352.43 583.90 348.38 580.03
  A 1.22 1.15 73.4 0 0 347.90 579.75
  L 338.58 576.82
  A 0.87 0.87 0.0 0 1 338.01 575.73
  L 338.14 575.33
  A 0.96 0.96 0.0 0 1 339.06 574.65
  L 377.35 574.64
  A 0.98 0.98 0.0 0 1 377.58 576.58
  C 375.11 577.17 373.11 577.37 371.78 578.82
  Q 369.35 581.50 371.31 586.22
  C 373.25 590.90 376.42 595.69 379.07 600.47
  Q 390.82 621.64 391.15 622.36
  Q 391.22 622.53 391.59 622.76
  A 0.96 0.94 -58.1 0 0 392.92 622.44
  Q 404.35 603.51 410.34 593.07
  Q 412.49 589.33 413.13 585.03
  C 414.02 579.08 409.25 577.68 404.57 577.18
  A 1.33 1.33 0.0 0 1 403.39 575.86
  L 403.39 575.38
  A 0.77 0.76 -0.0 0 1 404.16 574.62
  L 435.55 574.69
  A 1.73 1.72 76.5 0 1 437.09 575.64
  L 437.11 575.67
  A 0.92 0.91 -18.9 0 1 436.48 576.94
  Q 430.40 578.34 429.44 578.96
  Q 423.98 582.46 420.50 587.26
  C 417.76 591.06 416.16 592.95 414.36 596.05
  Q 402.67 616.15 397.53 624.54
  Q 396.09 626.88 396.09 629.00
  Q 396.04 660.38 396.03 660.49
  C 395.86 668.61 401.12 672.48 408.79 672.85
  Z"
/>
<path fill="#111011" d="
  M 303.89 620.44
  A 0.25 0.25 0.0 0 0 303.88 620.94
  Q 309.58 622.00 315.11 623.89
  C 327.04 627.96 332.91 638.00 331.15 650.25
  Q 330.36 655.76 327.11 660.93
  C 319.87 672.45 305.92 675.31 292.75 675.14
  Q 281.69 675.00 248.32 675.15
  A 0.94 0.94 0.0 0 1 247.40 673.99
  L 247.48 673.72
  A 1.64 1.63 4.4 0 1 248.84 672.56
  L 254.35 671.80
  A 1.91 1.81 28.2 0 0 254.68 671.71
  C 260.08 669.64 262.25 664.26 262.32 659.01
  Q 262.68 631.07 262.34 592.32
  C 262.32 589.82 262.16 588.14 261.64 585.63
  C 260.10 578.07 254.47 578.12 248.32 577.13
  A 1.06 1.04 -87.9 0 1 247.45 576.18
  L 247.42 575.68
  A 0.96 0.95 88.1 0 1 248.38 574.65
  Q 266.86 574.77 296.68 574.69
  Q 302.71 574.68 312.41 578.62
  Q 319.57 581.52 323.42 589.39
  A 5.38 5.13 29.0 0 1 323.89 590.89
  C 324.87 597.41 325.02 604.18 321.43 609.49
  Q 315.27 618.62 303.89 620.44
  Z
  M 277.90 580.21
  L 278.10 619.33
  A 0.39 0.39 0.0 0 0 278.49 619.71
  L 288.59 619.66
  A 18.95 18.45 -0.3 0 0 307.45 601.11
  L 307.43 598.11
  A 18.95 18.45 -0.3 0 0 288.39 579.76
  L 278.29 579.82
  A 0.39 0.39 0.0 0 0 277.90 580.21
  Z
  M 277.90 626.03
  L 277.90 659.07
  A 4.11 4.00 37.5 0 0 278.07 660.23
  C 279.66 665.60 281.56 669.74 287.48 670.00
  C 297.26 670.43 307.01 668.24 311.40 658.85
  C 316.29 648.41 312.27 633.03 301.18 628.59
  Q 291.90 624.87 278.56 625.34
  A 0.69 0.68 89.1 0 0 277.90 626.03
  Z"
/>
<path fill="#111011" d="
  M 504.30 579.84
  A 0.41 0.41 0.0 0 0 503.90 580.26
  Q 503.95 607.19 504.03 653.27
  Q 504.04 663.23 504.17 663.73
  C 505.41 668.71 510.02 671.80 515.29 672.18
  Q 517.49 672.34 519.59 673.09
  A 1.09 1.09 0.0 0 1 519.23 675.20
  L 471.51 675.21
  A 0.28 0.27 -17.4 0 1 471.29 675.10
  Q 471.13 674.89 471.12 674.89
  A 1.13 1.12 58.1 0 1 471.55 673.02
  Q 474.14 672.14 476.03 672.15
  C 484.53 672.19 487.92 665.04 487.92 657.97
  Q 487.90 619.61 487.95 580.44
  A 0.51 0.51 0.0 0 0 487.44 579.93
  C 481.47 579.97 473.65 579.20 467.13 581.14
  Q 460.45 583.12 456.20 589.28
  C 454.52 591.72 453.66 594.89 452.72 597.94
  A 2.11 2.02 -73.5 0 1 450.23 599.37
  Q 449.19 599.08 449.24 597.99
  Q 449.69 587.00 449.90 575.72
  A 1.09 1.09 0.0 0 1 450.99 574.65
  L 541.16 574.65
  A 0.86 0.85 90.0 0 1 542.01 575.51
  Q 541.94 586.83 542.38 591.49
  Q 542.40 591.76 542.92 597.01
  Q 543.08 598.64 542.20 599.32
  A 1.91 1.80 61.1 0 1 539.36 598.41
  C 538.02 594.85 537.28 591.47 534.96 588.30
  Q 532.62 585.09 529.79 583.06
  Q 529.08 582.55 525.15 581.39
  C 518.87 579.53 511.43 579.58 504.30 579.84
  Z"
/>
<path fill="#111011" d="
  M 586.53 629.12
  A 0.44 0.44 0.0 0 0 586.12 629.57
  Q 586.41 641.86 586.26 657.65
  C 586.23 660.72 586.91 665.53 588.44 667.60
  C 591.14 671.26 595.24 672.00 599.73 673.04
  A 1.05 1.05 0.0 0 1 599.49 675.12
  L 556.48 675.12
  A 0.81 0.81 0.0 0 1 555.67 674.31
  L 555.67 673.88
  A 1.05 1.04 -2.7 0 1 556.62 672.84
  Q 566.55 671.88 568.49 666.78
  C 569.56 663.97 570.19 661.92 570.21 659.03
  Q 570.45 612.74 570.09 590.49
  Q 570.04 587.76 568.33 582.65
  A 1.36 1.16 22.0 0 0 568.20 582.40
  Q 564.91 577.81 557.15 577.47
  A 1.56 1.54 0.8 0 1 555.67 575.96
  L 555.67 575.90
  A 1.27 1.27 0.0 0 1 556.95 574.61
  Q 585.14 574.73 597.38 574.60
  C 605.72 574.51 612.04 575.84 619.33 578.66
  Q 630.95 583.16 634.31 593.90
  C 638.94 608.74 627.74 621.85 614.27 626.57
  A 0.55 0.55 0.0 0 0 614.04 627.45
  Q 616.99 630.78 622.32 638.54
  C 627.15 645.57 631.78 654.35 636.44 661.05
  C 640.92 667.47 646.20 672.35 654.24 672.22
  A 1.41 1.40 87.4 0 1 655.66 673.52
  L 655.69 673.84
  A 0.78 0.77 85.5 0 1 654.99 674.67
  L 646.18 675.50
  A 4.92 3.71 26.4 0 0 645.43 675.64
  Q 640.76 677.03 637.28 676.32
  Q 635.72 676.00 631.29 674.54
  A 4.56 4.47 -17.7 0 1 630.12 673.95
  C 625.21 670.52 621.12 666.68 617.82 661.10
  C 615.43 657.05 613.72 654.56 611.49 650.59
  Q 607.20 642.98 603.81 637.73
  C 598.93 630.17 595.54 628.59 586.53 629.12
  Z
  M 586.15 580.99
  L 586.15 622.93
  A 1.00 1.00 0.0 0 0 587.15 623.93
  L 597.14 623.93
  A 21.10 20.67 -90.0 0 0 617.81 602.83
  L 617.81 601.09
  A 21.10 20.67 90.0 0 0 597.14 579.99
  L 587.15 579.99
  A 1.00 1.00 0.0 0 0 586.15 580.99
  Z"
/>
<path fill="#ffffff" d="
  M 277.90 580.21
  A 0.39 0.39 0.0 0 1 278.29 579.82
  L 288.39 579.76
  A 18.95 18.45 -0.3 0 1 307.43 598.11
  L 307.45 601.11
  A 18.95 18.45 -0.3 0 1 288.59 619.66
  L 278.49 619.71
  A 0.39 0.39 0.0 0 1 278.10 619.33
  L 277.90 580.21
  Z"
/>
<path fill="#ffffff" d="
  M 586.15 580.99
  A 1.00 1.00 0.0 0 1 587.15 579.99
  L 597.14 579.99
  A 21.10 20.67 90.0 0 1 617.81 601.09
  L 617.81 602.83
  A 21.10 20.67 90.0 0 1 597.14 623.93
  L 587.15 623.93
  A 1.00 1.00 0.0 0 1 586.15 622.93
  L 586.15 580.99
  Z"
/>
<path fill="#ffffff" d="
  M 699.17 631.54
  L 712.28 597.20
  A 0.65 0.65 0.0 0 1 713.49 597.18
  L 728.04 631.52
  A 0.65 0.65 0.0 0 1 727.44 632.42
  L 699.77 632.42
  A 0.65 0.65 0.0 0 1 699.17 631.54
  Z"
/>
<path fill="#ffffff" d="
  M 278.56 625.34
  Q 291.90 624.87 301.18 628.59
  C 312.27 633.03 316.29 648.41 311.40 658.85
  C 307.01 668.24 297.26 670.43 287.48 670.00
  C 281.56 669.74 279.66 665.60 278.07 660.23
  A 4.11 4.00 37.5 0 1 277.90 659.07
  L 277.90 626.03
  A 0.69 0.68 89.1 0 1 278.56 625.34
  Z"
/>
<path fill="#111011" d="
  M 267.24 728.95
  C 272.35 731.30 274.87 733.03 277.63 738.03
  Q 283.11 747.97 279.28 758.87
  Q 276.80 765.93 271.61 769.49
  Q 265.60 773.61 259.14 773.78
  Q 243.73 774.21 237.89 760.53
  C 235.70 755.42 235.45 746.52 237.60 741.39
  Q 242.28 730.23 253.26 728.02
  Q 254.25 727.82 260.34 727.72
  Q 264.44 727.66 267.24 728.95
  Z
  M 257.9138 729.5354
  A 20.99 14.91 -91.3 0 0 243.4838 750.8583
  A 20.99 14.91 -91.3 0 0 258.8662 771.5046
  A 20.99 14.91 -91.3 0 0 273.2962 750.1817
  A 20.99 14.91 -91.3 0 0 257.9138 729.5354
  Z"
/>
<path fill="#111011" d="
  M 368.74 773.10
  L 349.74 773.10
  A 0.47 0.47 0.0 0 1 349.27 772.66
  L 349.25 772.34
  A 0.60 0.60 0.0 0 1 349.80 771.69
  L 352.07 771.52
  A 3.56 3.55 -78.1 0 0 354.93 769.65
  Q 356.37 766.96 356.33 763.00
  Q 356.14 746.91 356.33 732.09
  A 0.71 0.70 -87.9 0 0 355.67 731.37
  Q 349.66 731.03 345.20 732.73
  A 2.53 2.51 9.4 0 0 344.20 733.44
  Q 341.60 736.47 341.00 739.40
  A 0.61 0.60 39.4 0 1 339.85 739.51
  C 338.92 737.33 340.13 731.36 340.51 729.03
  A 1.36 1.36 0.0 0 1 342.38 728.00
  Q 344.31 728.81 346.76 728.84
  Q 359.69 728.99 372.57 728.82
  C 375.02 728.79 375.84 728.45 378.21 727.87
  A 0.74 0.74 0.0 0 1 379.13 728.54
  L 379.94 739.21
  A 0.75 0.75 0.0 0 1 379.21 740.02
  L 379.18 740.02
  A 0.97 0.96 -3.6 0 1 378.26 739.22
  Q 377.30 733.84 372.53 731.97
  A 2.42 2.17 -29.7 0 0 371.79 731.81
  L 363.60 731.48
  A 0.53 0.52 -0.5 0 0 363.05 732.03
  Q 363.29 738.52 363.17 764.05
  Q 363.14 770.57 368.87 771.98
  A 0.57 0.57 0.0 0 1 368.74 773.10
  Z"
/>
<path fill="#111011" d="
  M 443.30 772.59
  A 0.42 0.42 0.0 0 0 443.18 773.20
  C 448.46 780.16 456.13 783.33 463.98 778.23
  A 0.74 0.73 59.5 0 1 465.04 778.51
  L 465.07 778.56
  A 0.94 0.93 -31.1 0 1 464.77 779.76
  Q 460.83 782.51 459.33 782.83
  Q 453.20 784.17 448.39 783.85
  Q 446.52 783.72 443.75 781.96
  Q 439.10 779.02 436.51 773.86
  A 1.17 1.16 -12.3 0 0 435.50 773.22
  Q 422.87 772.90 417.18 762.46
  C 411.33 751.73 414.84 736.47 425.34 730.02
  C 427.17 728.90 428.99 729.09 430.65 728.18
  A 2.90 2.78 28.4 0 1 431.88 727.84
  Q 439.32 727.50 441.20 727.83
  Q 451.81 729.71 456.01 738.73
  Q 463.31 754.36 451.62 767.71
  A 1.22 1.19 -84.2 0 1 451.32 767.96
  L 443.30 772.59
  Z
  M 436.0326 729.6753
  A 20.60 14.79 -91.3 0 0 421.7138 750.6055
  A 20.60 14.79 -91.3 0 0 436.9674 770.8647
  A 20.60 14.79 -91.3 0 0 451.2862 749.9345
  A 20.60 14.79 -91.3 0 0 436.0326 729.6753
  Z"
/>
<path fill="#111011" d="
  M 666.69 727.63
  C 680.37 728.26 688.51 738.59 687.90 751.86
  C 687.30 765.12 678.25 774.67 664.57 774.05
  C 650.90 773.42 642.76 763.09 643.36 749.82
  C 643.97 736.56 653.02 727.01 666.69 727.63
  Z
  M 665.0018 729.7216
  A 21.06 14.85 -91.9 0 0 650.8582 751.2624
  A 21.06 14.85 -91.9 0 0 666.3982 771.8184
  A 21.06 14.85 -91.9 0 0 680.5418 750.2776
  A 21.06 14.85 -91.9 0 0 665.0018 729.7216
  Z"
/>
<path fill="#111011" d="
  M 695.82 739.18
  A 0.80 0.80 0.0 0 1 694.37 738.64
  L 695.24 729.35
  A 1.69 1.68 18.7 0 1 697.82 728.08
  Q 698.97 728.80 700.51 728.83
  Q 706.21 728.93 729.90 728.92
  A 3.29 3.13 -55.2 0 0 731.16 728.66
  L 733.03 727.87
  A 0.69 0.69 0.0 0 1 733.99 728.46
  L 734.79 738.94
  A 0.81 0.80 -9.9 0 1 734.21 739.76
  L 733.92 739.84
  A 0.79 0.79 0.0 0 1 732.93 739.17
  C 732.01 731.38 724.30 731.28 718.13 731.52
  A 0.48 0.48 0.0 0 0 717.67 732.02
  Q 717.90 737.58 717.74 762.31
  C 717.71 766.37 718.88 771.35 723.32 771.58
  A 0.92 0.91 88.9 0 1 724.18 772.42
  L 724.20 772.71
  A 0.35 0.35 0.0 0 1 723.85 773.09
  L 705.59 773.18
  A 0.69 0.68 4.9 0 1 704.91 772.38
  L 704.93 772.32
  A 1.16 1.15 -89.3 0 1 705.88 771.39
  Q 710.57 770.67 710.76 765.98
  Q 711.05 759.00 710.91 732.16
  A 0.66 0.66 0.0 0 0 710.25 731.50
  Q 703.22 731.53 701.91 731.86
  Q 700.07 732.32 697.55 735.00
  C 696.69 735.91 696.52 738.18 695.82 739.18
  Z"
/>
<path fill="#111011" d="
  M 216.77 748.46
  A 0.29 0.29 0.0 0 0 216.76 748.99
  L 223.64 752.34
  A 2.71 2.67 -1.3 0 1 224.81 753.44
  C 228.53 759.97 226.38 769.04 218.74 771.85
  Q 217.55 772.28 216.40 772.85
  A 1.67 1.61 30.5 0 1 215.65 773.03
  L 190.33 773.03
  A 0.38 0.38 0.0 0 1 189.95 772.64
  L 189.96 772.36
  A 0.76 0.75 3.4 0 1 190.71 771.70
  Q 196.06 771.63 196.52 765.67
  Q 196.71 763.24 196.59 735.50
  C 196.58 731.45 194.30 730.88 190.94 730.25
  A 0.78 0.78 0.0 0 1 190.30 729.48
  L 190.30 729.11
  A 0.56 0.56 0.0 0 1 190.87 728.55
  Q 200.69 728.75 212.47 728.61
  Q 213.36 728.60 217.81 730.17
  C 220.90 731.27 223.00 733.60 223.43 736.73
  C 224.24 742.68 222.31 746.01 216.77 748.46
  Z
  M 203.55 731.48
  L 203.57 747.84
  A 0.48 0.48 0.0 0 0 204.06 748.32
  L 208.00 748.31
  A 8.62 8.16 -0.1 0 0 216.60 740.14
  L 216.60 739.14
  A 8.62 8.16 -0.1 0 0 207.96 730.99
  L 204.02 731.00
  A 0.48 0.48 0.0 0 0 203.55 731.48
  Z
  M 203.57 751.39
  Q 203.25 763.16 203.72 766.47
  Q 204.08 769.05 206.66 770.63
  A 2.17 2.16 62.3 0 0 207.68 770.95
  Q 214.80 771.34 218.29 765.36
  A 3.12 3.12 0.0 0 0 218.65 764.40
  Q 220.94 753.04 209.77 750.72
  Q 208.66 750.49 204.13 750.81
  A 0.59 0.59 0.0 0 0 203.57 751.39
  Z"
/>
<path fill="#111011" d="
  M 483.63 728.71
  A 0.69 0.68 -59.6 0 1 483.96 729.99
  Q 482.16 731.01 481.31 732.37
  A 2.13 2.10 -29.8 0 0 480.99 733.52
  Q 481.09 739.71 480.98 755.49
  C 480.93 762.07 482.65 768.84 489.71 770.54
  C 497.75 772.47 503.72 767.09 504.73 759.18
  Q 505.34 754.47 505.12 735.47
  Q 505.07 730.55 500.77 730.15
  A 0.57 0.57 0.0 0 1 500.28 729.73
  Q 500.08 728.99 500.63 728.67
  A 0.24 0.17 -54.2 0 1 500.75 728.63
  L 510.68 728.63
  A 0.83 0.83 0.0 0 1 511.03 730.21
  C 508.27 731.49 507.84 733.27 507.83 736.28
  Q 507.82 739.08 507.81 754.13
  C 507.80 765.59 504.33 771.59 492.78 773.95
  Q 488.33 774.85 482.95 772.19
  Q 473.97 767.75 473.60 757.69
  Q 473.24 747.69 473.24 734.22
  A 2.84 2.82 13.2 0 0 471.65 731.68
  L 468.39 730.09
  A 0.73 0.72 57.8 0 1 468.70 728.71
  L 483.63 728.71
  Z"
/>
<path fill="#111011" d="
  M 621.55 750.93
  L 600.88 750.93
  A 0.58 0.57 -89.5 0 0 600.31 751.50
  Q 600.28 761.00 600.22 765.00
  Q 600.18 767.23 602.62 770.73
  A 1.91 1.90 78.3 0 0 603.82 771.52
  Q 604.48 771.65 605.07 772.02
  A 0.58 0.58 0.0 0 1 604.76 773.09
  L 588.66 773.09
  A 0.59 0.59 0.0 0 1 588.07 772.50
  L 588.07 772.23
  A 0.53 0.53 0.0 0 1 588.50 771.71
  Q 593.22 770.82 593.26 765.00
  Q 593.37 749.63 593.32 734.79
  A 3.27 3.26 -77.1 0 0 591.49 731.87
  L 588.41 730.36
  A 0.84 0.84 0.0 0 1 588.78 728.77
  L 604.52 728.77
  A 0.72 0.72 0.0 0 1 604.80 730.16
  Q 602.02 731.33 600.37 734.32
  A 0.98 0.92 -32.8 0 0 600.26 734.76
  L 600.26 747.38
  A 0.70 0.70 0.0 0 0 600.96 748.08
  L 621.46 748.08
  A 0.83 0.83 0.0 0 0 622.29 747.25
  L 622.29 735.50
  A 3.94 3.93 -71.5 0 0 620.73 732.36
  Q 619.55 731.47 617.56 730.40
  Q 616.73 729.96 617.03 729.20
  Q 617.18 728.83 617.50 728.81
  Q 620.26 728.67 633.44 728.78
  A 0.63 0.62 13.3 0 1 634.00 729.68
  L 633.82 730.06
  A 1.26 1.25 -78.8 0 1 632.78 730.76
  Q 630.73 730.90 629.53 733.07
  Q 628.90 734.21 628.88 737.07
  Q 628.80 751.61 628.87 760.46
  C 628.91 766.01 628.68 770.36 634.61 771.79
  A 0.67 0.67 0.0 0 1 634.43 773.11
  Q 627.29 772.95 618.00 773.17
  A 0.68 0.66 2.9 0 1 617.31 772.42
  Q 617.41 771.72 618.09 771.50
  Q 619.27 771.11 619.85 770.91
  A 1.88 1.86 4.3 0 0 620.86 770.05
  C 622.65 766.77 622.23 764.26 622.27 760.76
  Q 622.35 753.25 622.24 751.58
  A 0.69 0.69 0.0 0 0 621.55 750.93
  Z"
/>
<path fill="#111011" d="
  M 321.49 730.21
  A 0.66 0.65 -88.6 0 1 320.87 729.55
  L 320.87 729.23
  A 0.55 0.55 0.0 0 1 321.42 728.68
  L 331.92 728.68
  A 0.57 0.57 0.0 0 1 332.32 729.65
  L 329.59 732.39
  A 2.27 2.24 68.0 0 0 328.92 734.00
  Q 328.96 747.47 328.72 755.50
  C 328.56 760.90 327.21 766.76 322.54 770.00
  Q 312.98 776.64 302.92 772.05
  Q 298.26 769.93 295.71 765.11
  Q 294.12 762.12 294.19 755.13
  Q 294.28 745.92 294.05 735.50
  C 294.00 733.23 292.90 731.63 290.84 730.84
  Q 289.78 730.44 289.17 729.82
  A 0.64 0.63 67.7 0 1 289.62 728.74
  L 303.46 728.74
  A 0.90 0.90 0.0 0 1 303.87 730.45
  C 301.94 731.41 301.29 732.32 301.09 734.62
  Q 300.88 737.16 301.03 755.01
  C 301.12 764.48 305.78 773.66 317.08 770.07
  Q 323.77 767.94 325.07 761.95
  C 325.59 759.52 326.15 757.84 326.20 755.49
  Q 326.52 740.78 326.15 734.77
  Q 325.88 730.40 321.49 730.21
  Z"
/>
<path fill="#111011" d="
  M 396.34 728.71
  Q 403.79 728.68 404.44 728.72
  A 0.71 0.71 0.0 0 1 404.76 730.03
  C 401.63 731.95 399.95 732.13 399.89 736.60
  Q 399.66 752.51 399.95 763.21
  C 400.06 766.97 401.17 771.16 405.25 771.86
  A 0.61 0.53 -58.5 0 1 405.42 772.87
  Q 405.19 773.08 404.78 773.07
  Q 400.46 772.94 396.50 772.95
  Q 392.54 772.97 388.23 773.13
  Q 387.81 773.14 387.58 772.94
  A 0.61 0.53 58.1 0 1 387.74 771.92
  C 391.82 771.19 392.90 767.00 392.98 763.24
  Q 393.19 752.53 392.84 736.63
  C 392.75 732.16 391.07 731.99 387.93 730.09
  A 0.71 0.71 0.0 0 1 388.24 728.78
  Q 388.89 728.73 396.34 728.71
  Z"
/>
<path fill="#111011" d="
  M 546.61 756.25
  Q 545.66 756.07 545.45 755.10
  C 545.17 753.79 543.53 752.94 542.63 751.57
  A 1.04 1.03 72.8 0 0 541.77 751.11
  L 533.68 751.11
  A 0.72 0.71 -89.2 0 0 532.97 751.81
  Q 532.81 761.21 533.01 765.97
  Q 533.11 768.41 535.62 770.34
  A 1.94 1.91 65.6 0 0 536.68 770.75
  C 542.38 771.11 548.86 770.92 552.75 766.77
  Q 553.50 765.97 556.44 761.84
  A 0.63 0.63 0.0 0 1 557.58 762.32
  L 555.94 771.62
  A 1.59 1.59 0.0 0 1 554.37 772.94
  L 520.75 772.94
  A 0.54 0.54 0.0 0 1 520.21 772.40
  L 520.21 772.05
  A 0.50 0.50 0.0 0 1 520.60 771.56
  L 522.82 771.03
  A 1.50 1.48 -75.7 0 0 523.58 770.57
  Q 525.90 767.95 525.88 764.74
  Q 525.80 752.50 525.82 741.43
  C 525.84 735.59 526.54 731.84 520.84 730.18
  A 0.71 0.71 0.0 0 1 521.04 728.79
  L 551.60 728.79
  A 0.38 0.38 0.0 0 1 551.98 729.17
  L 551.98 737.78
  A 0.49 0.48 5.1 0 1 551.41 738.25
  L 551.13 738.20
  A 1.23 1.21 -87.9 0 1 550.13 737.11
  Q 549.81 733.85 545.99 732.29
  Q 542.84 731.01 533.52 731.08
  A 0.57 0.57 0.0 0 0 532.96 731.65
  L 532.96 747.92
  A 0.66 0.66 0.0 0 0 533.62 748.58
  L 542.01 748.58
  A 1.02 0.87 28.9 0 0 542.40 748.50
  Q 545.53 747.06 545.80 743.38
  A 0.63 0.63 0.0 0 1 546.43 742.79
  L 546.76 742.79
  A 0.29 0.29 0.0 0 1 547.05 743.08
  L 547.05 755.88
  A 0.38 0.37 -84.9 0 1 546.61 756.25
  Z"
/>
<path fill="#111011" d="
  M 767.52 755.57
  Q 766.74 752.60 762.94 751.24
  Q 762.08 750.93 755.42 751.19
  A 0.62 0.62 0.0 0 0 754.82 751.81
  Q 754.74 760.73 754.78 763.99
  Q 754.84 768.55 758.01 770.42
  A 2.30 2.29 62.7 0 0 758.91 770.71
  C 766.22 771.49 775.01 770.08 777.55 762.41
  A 1.25 1.25 0.0 0 1 778.74 761.55
  L 779.09 761.55
  A 0.65 0.64 -85.1 0 1 779.72 762.31
  L 778.14 771.31
  A 2.15 2.14 -84.9 0 1 776.03 773.08
  L 742.32 773.08
  A 0.40 0.40 0.0 0 1 741.92 772.68
  L 741.92 772.37
  A 0.74 0.73 86.0 0 1 742.55 771.64
  Q 747.39 770.97 747.75 765.41
  Q 747.93 762.48 747.84 737.25
  C 747.83 733.55 747.07 731.24 743.42 730.57
  A 0.85 0.85 0.0 0 1 743.58 728.88
  L 773.36 728.88
  A 0.56 0.56 0.0 0 1 773.92 729.44
  L 773.92 738.38
  A 0.46 0.45 -0.0 0 1 773.46 738.83
  L 773.14 738.83
  A 0.77 0.77 0.0 0 1 772.37 738.01
  Q 772.49 735.65 770.48 734.01
  C 766.82 731.03 760.30 730.90 755.48 731.11
  A 0.62 0.62 0.0 0 0 754.88 731.73
  L 754.88 748.00
  A 0.76 0.76 0.0 0 0 755.68 748.76
  Q 758.48 748.63 763.23 748.73
  Q 763.60 748.74 766.22 747.58
  A 1.38 1.38 0.0 0 0 766.99 746.73
  L 767.73 744.36
  A 0.72 0.71 -36.4 0 1 769.13 744.57
  L 769.13 755.36
  A 0.82 0.82 0.0 0 1 767.52 755.57
  Z"
/>
<path fill="#111011" d="
  M 804.57 728.90
  A 0.82 0.82 0.0 0 1 804.81 730.50
  Q 802.02 731.34 800.76 733.74
  A 2.19 2.10 60.7 0 0 800.51 734.71
  Q 800.37 764.54 800.49 765.65
  Q 800.76 768.19 802.98 770.13
  A 2.56 2.54 -19.4 0 0 804.23 770.72
  Q 817.32 772.94 823.80 761.84
  Q 824.10 761.34 824.89 761.40
  A 0.71 0.71 0.0 0 1 825.52 762.27
  L 823.12 772.32
  A 1.07 1.06 -83.0 0 1 822.09 773.13
  L 788.66 773.13
  A 0.63 0.63 0.0 0 1 788.50 771.89
  Q 793.69 770.52 793.71 764.95
  Q 793.78 752.13 793.65 737.22
  C 793.62 733.60 792.72 731.28 789.13 730.60
  A 0.86 0.86 0.0 0 1 789.29 728.90
  L 804.57 728.90
  Z"
/>
<ellipse fill="#ffffff" cx="0.00" cy="0.00" transform="translate(258.39,750.52) rotate(-91.3)" rx="20.99" ry="14.91"/>
<ellipse fill="#ffffff" cx="0.00" cy="0.00" transform="translate(436.50,750.27) rotate(-91.3)" rx="20.60" ry="14.79"/>
<ellipse fill="#ffffff" cx="0.00" cy="0.00" transform="translate(665.70,750.77) rotate(-91.9)" rx="21.06" ry="14.85"/>
<path fill="#ffffff" d="
  M 203.55 731.48
  A 0.48 0.48 0.0 0 1 204.02 731.00
  L 207.96 730.99
  A 8.62 8.16 -0.1 0 1 216.60 739.14
  L 216.60 740.14
  A 8.62 8.16 -0.1 0 1 208.00 748.31
  L 204.06 748.32
  A 0.48 0.48 0.0 0 1 203.57 747.84
  L 203.55 731.48
  Z"
/>
<path fill="#ffffff" d="
  M 204.13 750.81
  Q 208.66 750.49 209.77 750.72
  Q 220.94 753.04 218.65 764.40
  A 3.12 3.12 0.0 0 1 218.29 765.36
  Q 214.80 771.34 207.68 770.95
  A 2.17 2.16 62.3 0 1 206.66 770.63
  Q 204.08 769.05 203.72 766.47
  Q 203.25 763.16 203.57 751.39
  A 0.59 0.59 0.0 0 1 204.13 750.81
  Z"
/>
</svg>
